<?xml version="1.0" encoding="UTF-8"?>
<svg id="Layer_2" data-name="Layer 2" xmlns="http://www.w3.org/2000/svg" viewBox="0 0 397.08 103">
  <g id="Layer_1-2" data-name="Layer 1">
    <g>
      <polygon points="59 0 59 24 103 24 103 37 59 37 59 45 103 45 103 58 59 58 59 66 103 66 103 79 59 79 59 103 45 103 45 79 0 79 0 66 45 66 45 58 0 58 0 45 45 45 45 37 0 37 0 24 45 24 45 0 59 0"/>
      <g>
        <path d="M119.43,37.1c0-5.06,3.89-8.69,9.12-8.69,2.9,0,5.33,1.06,6.91,2.98l-2.5,2.3c-1.13-1.3-2.54-1.97-4.22-1.97-3.14,0-5.38,2.21-5.38,5.38s2.23,5.38,5.38,5.38c1.68,0,3.1-.67,4.22-1.99l2.5,2.3c-1.58,1.94-4.01,3-6.94,3-5.21,0-9.1-3.62-9.1-8.69Z"/>
        <path d="M145.97,39.55v5.95h-3.89v-6l-6.5-10.8h4.13l4.49,7.46,4.49-7.46h3.82l-6.53,10.85Z"/>
        <path d="M168.53,34.8c0,3.74-2.81,6.07-7.3,6.07h-3.38v4.63h-3.89v-16.8h7.27c4.49,0,7.3,2.33,7.3,6.1ZM164.6,34.8c0-1.85-1.2-2.93-3.58-2.93h-3.17v5.83h3.17c2.38,0,3.58-1.08,3.58-2.9Z"/>
        <path d="M186.7,28.7v16.8h-3.89v-6.89h-7.63v6.89h-3.89v-16.8h3.89v6.62h7.63v-6.62h3.89Z"/>
        <path d="M203.69,42.38v3.12h-13.01v-16.8h12.7v3.12h-8.83v3.65h7.8v3.02h-7.8v3.89h9.14Z"/>
        <path d="M217.49,45.5l-3.24-4.68h-3.58v4.68h-3.89v-16.8h7.27c4.49,0,7.3,2.33,7.3,6.1,0,2.52-1.27,4.37-3.46,5.3l3.77,5.4h-4.18ZM213.84,31.87h-3.17v5.86h3.17c2.38,0,3.58-1.1,3.58-2.93s-1.2-2.93-3.58-2.93Z"/>
        <path d="M239.72,45.5l-.02-10.08-4.94,8.3h-1.75l-4.92-8.09v9.86h-3.65v-16.8h3.22l6.29,10.44,6.19-10.44h3.19l.05,16.8h-3.65Z"/>
        <path d="M247.2,38.11v-9.41h3.89v9.26c0,3.19,1.39,4.51,3.74,4.51s3.75-1.32,3.75-4.51v-9.26h3.84v9.41c0,4.94-2.83,7.68-7.61,7.68s-7.61-2.74-7.61-7.68Z"/>
        <path d="M281.67,28.7v16.8h-3.19l-8.38-10.2v10.2h-3.84v-16.8h3.22l8.35,10.2v-10.2h3.84Z"/>
        <path d="M291.77,38.9l-2.26,2.35v4.25h-3.86v-16.8h3.86v7.85l7.44-7.85h4.32l-6.96,7.49,7.37,9.31h-4.54l-5.38-6.6Z"/>
        <path d="M325.61,28.7v16.8h-3.89v-6.89h-7.63v6.89h-3.89v-16.8h3.89v6.62h7.63v-6.62h3.89Z"/>
        <path d="M328.54,37.1c0-4.99,3.89-8.69,9.19-8.69s9.19,3.67,9.19,8.69-3.91,8.69-9.19,8.69-9.19-3.7-9.19-8.69ZM342.99,37.1c0-3.19-2.26-5.38-5.26-5.38s-5.26,2.18-5.26,5.38,2.26,5.38,5.26,5.38,5.26-2.18,5.26-5.38Z"/>
        <path d="M349.71,38.11v-9.41h3.89v9.26c0,3.19,1.39,4.51,3.74,4.51s3.75-1.32,3.75-4.51v-9.26h3.84v9.41c0,4.94-2.83,7.68-7.61,7.68s-7.61-2.74-7.61-7.68Z"/>
        <path d="M367.44,43.84l1.32-2.93c1.42,1.03,3.53,1.75,5.54,1.75,2.3,0,3.24-.77,3.24-1.8,0-3.14-9.77-.98-9.77-7.22,0-2.86,2.3-5.23,7.08-5.23,2.11,0,4.27.5,5.83,1.49l-1.2,2.95c-1.56-.89-3.17-1.32-4.66-1.32-2.3,0-3.19.86-3.19,1.92,0,3.1,9.77.96,9.77,7.13,0,2.81-2.33,5.21-7.13,5.21-2.66,0-5.35-.79-6.84-1.94Z"/>
        <path d="M397.08,42.38v3.12h-13.01v-16.8h12.7v3.12h-8.83v3.65h7.8v3.02h-7.8v3.89h9.14Z"/>
        <path d="M120.48,57.5h3.89v13.63h8.42v3.17h-12.31v-16.8Z"/>
        <path d="M133.63,65.9c0-4.99,3.89-8.69,9.19-8.69s9.19,3.67,9.19,8.69-3.91,8.69-9.19,8.69-9.19-3.7-9.19-8.69ZM148.08,65.9c0-3.19-2.26-5.38-5.26-5.38s-5.26,2.18-5.26,5.38,2.26,5.38,5.26,5.38,5.26-2.18,5.26-5.38Z"/>
        <path d="M170.36,57.5v16.8h-3.19l-8.38-10.2v10.2h-3.84v-16.8h3.22l8.35,10.2v-10.2h3.84Z"/>
        <path d="M174.34,57.5h7.63c5.5,0,9.26,3.31,9.26,8.4s-3.77,8.4-9.26,8.4h-7.63v-16.8ZM181.78,71.11c3.34,0,5.52-1.99,5.52-5.21s-2.18-5.21-5.52-5.21h-3.55v10.42h3.55Z"/>
        <path d="M193.11,65.9c0-4.99,3.89-8.69,9.19-8.69s9.19,3.67,9.19,8.69-3.91,8.69-9.19,8.69-9.19-3.7-9.19-8.69ZM207.56,65.9c0-3.19-2.26-5.38-5.26-5.38s-5.26,2.18-5.26,5.38,2.26,5.38,5.26,5.38,5.26-2.18,5.26-5.38Z"/>
        <path d="M229.83,57.5v16.8h-3.19l-8.38-10.2v10.2h-3.84v-16.8h3.22l8.35,10.2v-10.2h3.84Z"/>
      </g>
    </g>
  </g>
</svg>