<?xml version="1.0" encoding="UTF-8"?>
<svg id="Layer_1" xmlns="http://www.w3.org/2000/svg" version="1.1" viewBox="0 0 1148 365">
  <!-- Generator: Adobe Illustrator 29.6.1, SVG Export Plug-In . SVG Version: 2.1.1 Build 9)  -->
  <defs>
    <style>
      .st0 {
        fill: #31d6c1;
      }
    </style>
  </defs>
  <path class="st0" d="M346.4,125.7c-.2-1.2-.4-2.4-.6-3.7l-.7-3.9c-1-4.2-5.7-7.7-10.4-7.7h-113.4c-4.7,0-9.7,3.6-11.1,8.1l-24.1,74.4c-.7,2.2-1.6,4.9-.6,6.4,1.1,1.5,4.1,1.7,6.5,1.7h46.2s2.2,0,2.4,1.5c.3,1.6-1.3,3.3-1.3,3.3l-81.4,85.5c-2.8,3-7.8,8.2-11,11.6l-20.9,21.9s-.4.5-.9.9c-.3.3-.6.5-.8.7-2.9,2.2-4.3,1-3.1-3.1l10.6-36.4c1.3-4.5,3.5-11.8,4.8-16.3l6.1-20.8c1-3.5,2.2-7.5,2.9-10,.2-.7.7-2.9,0-4-.7-1.1-1.9-1.2-3.2-1.2h-48.8c-4.7,0-6.2-2.4-3.5-5.3,2.8-2.9,7.7-8,10.9-11.4l34.2-35.9c3.2-3.4,8.2-8.6,11-11.6,2.8-3,7.8-8.2,11-11.6l5.8-6.1c3.2-3.4,8.5-8.9,11.7-12.3l11.8-12.4c3.2-3.4,8.3-8.7,11.2-11.8,3-3.1,6.2-6.5,7.1-7.5.9-1,4.4-4.6,7.6-8l65.9-69.3c3.2-3.4,2.6-8.2-1.4-10.6,0,0-9.3-5.7-18.2-9.4C235.8,1.8,210.8-1.6,185.6.7c-7.1.6-14.2,1.7-21.3,3.3-19.1,4.1-37.8,11.4-55.4,21.5-11,6.3-21.5,13.7-31.4,22-23.3,19.7-42.8,44.5-56.7,73.2-6.9,14.3-12,28.7-15.4,43-7.2,29.9-7.1,59.3-1,85.8,4.1,17.6,10.9,34,20.1,48.6.6.9,1.1,1.8,1.7,2.7,5,7.5,10.6,14.5,16.8,20.9,9.5,9.8,20.6,18.3,33.1,25.2,6.2,3.4,12.6,6.3,19.2,8.8,3.7,1.4,7.5,2.6,11.2,3.7,6.5,1.8,13.1,3.2,19.7,4.1,58,8.2,125.4-17.3,172-73.3,8.9-10.7,16.7-22,23.3-33.8,8.7-15.4,15.3-31.6,19.9-48.1,3.8-13.8,6.1-27.7,6.9-41.6.8-13.8.1-27.5-2.1-40.9Z"/>
  <path class="st0" d="M347.3,302.6l36-185c.4-1.8.8-3.1,1.2-3.9.4-.8,1.3-1.5,2.7-2.2,1.4-.7,3.4-1.1,6-1.1h106.8c5.2,0,7.4,2.4,6.6,7.2l-6.6,34.5c0,4.4-2.9,6.6-8.7,6.6h-58.5l-4.5,24h53.7c5,0,7,2,6,6l-6.6,34.5c0,5-2.9,7.5-8.7,7.5h-53.7l-6,30.9h66c4.4,0,6.3,2.2,5.7,6.6l-6.9,34.5c-.2,1.6-.5,2.8-.8,3.6-.3.8-1.1,1.6-2.4,2.4-1.3.8-3.3,1.2-5.8,1.2h-114.3c-3.4,0-5.5-.5-6.4-1.6-.9-1.1-1.2-2.9-.8-5.5Z"/>
  <path class="st0" d="M592,190.2h2.4c9.8-19,16.1-30.7,18.9-35.1l19.5-34.2c2.6-4.4,5-7.3,7.2-8.7,2.2-1.4,5.7-2.1,10.5-2.1h40.5c3,0,5,.8,6.1,2.4,1.1,1.6.9,3.3-.4,5.1l-85.2,126.2-11.1,58.8c-.6,4.8-3.8,7.2-9.6,7.2h-40.8c-5.8,0-8.2-2.4-7.2-7.2l11.4-58.8h.3l-32.7-124.8c-.6-2.6-.1-4.7,1.4-6.4,1.5-1.7,3.9-2.5,7.3-2.5h36.6c4.6,0,7.7.6,9.3,1.6,1.6,1.1,2.9,3.4,3.9,7l6.9,36.3c2.6,15.4,4.2,27.1,4.8,35.1Z"/>
  <path class="st0" d="M773.8,108.3c20.6,0,36.8,3,48.6,9,9,4.4,11.8,9.6,8.4,15.6l-7.5,21.9c-1.8,4.4-3.9,7.1-6.1,8.1-2.3,1-5.8.9-10.3-.3-13-2.6-25.1-3.9-36.3-3.9s-10,.9-12.6,2.5c-2.6,1.7-3.9,5.1-3.9,10s2.3,7,6.9,9.6l6.9,3c.8.2,2.6.7,5.4,1.6,2.8.9,5.4,1.8,7.8,2.5,2.4.8,4.3,1.5,5.7,2.1,11.4,4.4,20,10.2,25.9,17.4,5.9,7.2,8.8,17.1,8.8,29.7,0,28-9.7,48-29.1,60-17,10.2-37.7,15.3-62.1,15.3s-39-3.2-52.2-9.6c-8.8-4.2-11.5-9.4-8.1-15.6l7.8-21.6c1.8-4.8,3.8-7.6,6-8.5,2.2-.9,6.2-.6,12,.8,18.4,2.8,33.3,4.2,44.7,4.2s19.5-5,19.5-15-1.1-6-3.2-7.8c-2.1-1.8-6-3.6-11.5-5.4-14-4.4-25.9-10-35.7-16.8-11.4-8.6-17.1-21.2-17.1-37.8s2.2-24.2,6.6-33.7c4.4-9.5,10.4-16.8,18.1-22,7.7-5.2,16.2-9,25.6-11.5,9.4-2.5,19.7-3.8,30.9-3.8Z"/>
  <path class="st0" d="M829,302.6l36-185c.4-1.8.8-3.1,1.2-3.9.4-.8,1.3-1.5,2.7-2.2,1.4-.7,3.4-1.1,6-1.1h106.8c5.2,0,7.4,2.4,6.6,7.2l-6.6,34.5c0,4.4-2.9,6.6-8.7,6.6h-58.5l-4.5,24h53.7c5,0,7,2,6,6l-6.6,34.5c0,5-2.9,7.5-8.7,7.5h-53.7l-6,30.9h66c4.4,0,6.3,2.2,5.7,6.6l-6.9,34.5c-.2,1.6-.5,2.8-.8,3.6-.3.8-1.1,1.6-2.4,2.4-1.3.8-3.3,1.2-5.8,1.2h-114.3c-3.4,0-5.5-.5-6.4-1.6-.9-1.1-1.2-2.9-.7-5.5Z"/>
  <path class="st0" d="M1027,110.4h69c15.4,0,27.8,4.3,37.2,13,9.4,8.7,14.1,21.1,14.1,37.3,0,29.2-12.2,51.2-36.6,66l15.3,74.4c.6,2.6,0,4.7-1.7,6.3-1.7,1.6-4.1,2.4-7,2.4h-37.5c-8.6,0-13.2-2.6-13.8-7.8l-7.8-64.5h-7.2l-12.6,65.1c-.6,4.8-3.8,7.2-9.6,7.2h-40.5c-3.4,0-5.6-.5-6.6-1.6-1-1.1-1.3-2.9-.9-5.5l36-185c.6-2.6,1.6-4.4,3-5.5,1.4-1.1,3.8-1.6,7.2-1.6ZM1078.2,158.7h-12l-6,32.1h11.4c4.2,0,7.8-1.7,10.9-5.2,3.1-3.5,4.6-9,4.6-16.6s-3-10.2-9-10.2Z"/>
</svg>