<?xml version="1.0" encoding="UTF-8"?>
<svg id="Layer_2" data-name="Layer 2" xmlns="http://www.w3.org/2000/svg" viewBox="0 0 697.31 195.19">
  <g id="Layer_1-2" data-name="Layer 1">
    <path d="M191.82,26.21c-27.76,15.42-36.33,34.57-57.05,54.45-35.01,33.58-75.82-13.49-35.67-36.17,13.35-7.54,26.28-8.18,38.01,2.52-2.84-15.02-12.16-25.55-26.01-31.48-20.07-8.59-41.33-5.39-62.47-7.53C36.12,6.74,23.56,3.83,11.63,0c-1.64,1,.24,2.23,1.01,2.99,7.93,7.8,21.53,10.66,31.98,13.04,1.54.35,1.75-.67,1.49,1.96C16.54,33.16-5.29,63.54,1.13,98.01l10.47-26.01c2.32-3.12,3.57-7.82,7.51-8.98-9.19,46.36,24.45,79.41,61.34,100.17,19.7,11.09,44.85,21.83,67.67,18.82l-14.99-7.48,17.97-10.03-.46-2.44c-6.02,1.5-12.57,1.34-18.74,2.25-3.68.54-10.69,3.44-13.3,3.28-4.13-.25-17.2-9.05-20.48-12.55,26.67,1.26,59.13-11.13,69.99-37.01-18.16,15.46-42.58,23.97-66.48,20.99-2.61-.33-5.77-.96-8.3-1.7-1.16-.34-4.23-.82-4.21-2.27,32.98,3.19,69.49-20.04,78.98-52.01-13.81,13.57-32.16,31.59-52.49,34-4.53.54-9.86-.39-14.5,0l19.68-6.82c20.15-9.39,30.85-29.43,46.31-43.69,25.86-23.87,62.23-35.12,97.01-27.5-.54-1.43-3.58-2.84-4.96-3.53-8.32-4.18-17.46-5.07-26.56-6.46h-9.47c15.66-7.37,33.38-8.13,50.53-7.04,3.58.23,6.92,1.86,10.46,1.54-25.11-20.56-66.02-11.9-92.29,2.7ZM110.11,27c-8.49,2.04-23.25,11.51-27.01-1.39.46-10.12,23.34-6.38,27.01,1.39Z"/>
    <g>
      <path d="M204.79,67.2h9.9v34.72h21.46v8.07h-31.36v-42.79Z"/>
      <path d="M238.35,93.54c0-9.9,7.64-16.93,18.09-16.93s18.03,7.03,18.03,16.93-7.58,16.93-18.03,16.93-18.09-7.03-18.09-16.93ZM264.81,93.54c0-5.68-3.61-9.11-8.37-9.11s-8.44,3.42-8.44,9.11,3.67,9.11,8.44,9.11,8.37-3.42,8.37-9.11Z"/>
      <path d="M314.44,91.16v18.83h-9.54v-17.36c0-5.32-2.45-7.76-6.66-7.76-4.58,0-7.89,2.81-7.89,8.86v16.26h-9.54v-32.89h9.11v3.85c2.57-2.81,6.42-4.34,10.88-4.34,7.76,0,13.63,4.52,13.63,14.55Z"/>
      <path d="M357.35,77.1v27.38c0,12.22-6.6,17.85-18.46,17.85-6.24,0-12.29-1.53-16.14-4.52l3.79-6.85c2.81,2.26,7.4,3.73,11.61,3.73,6.72,0,9.66-3.06,9.66-8.99v-1.41c-2.51,2.75-6.11,4.1-10.39,4.1-9.11,0-16.44-6.3-16.44-15.89s7.33-15.89,16.44-15.89c4.58,0,8.37,1.53,10.88,4.71v-4.22h9.05ZM347.94,92.51c0-4.83-3.61-8.07-8.62-8.07s-8.68,3.24-8.68,8.07,3.67,8.07,8.68,8.07,8.62-3.24,8.62-8.07Z"/>
      <path d="M398.24,96.23h-24.88c.92,4.1,4.4,6.6,9.41,6.6,3.48,0,5.99-1.04,8.25-3.18l5.07,5.5c-3.06,3.48-7.64,5.32-13.57,5.32-11.37,0-18.77-7.15-18.77-16.93s7.52-16.93,17.54-16.93,17.12,6.48,17.12,17.05c0,.73-.12,1.77-.18,2.57ZM373.24,90.67h16.2c-.67-4.16-3.79-6.85-8.07-6.85s-7.46,2.63-8.13,6.85Z"/>
      <path d="M436.81,77.1l-13.88,32.89h-9.84l-13.81-32.89h9.84l9.11,22.37,9.41-22.37h9.17Z"/>
      <path d="M439.56,67.2c0-3,2.38-5.32,5.93-5.32s5.93,2.2,5.93,5.13c0,3.18-2.38,5.5-5.93,5.5s-5.93-2.32-5.93-5.32ZM440.72,77.1h9.54v32.89h-9.54v-32.89Z"/>
      <path d="M480.33,108.4c-1.96,1.41-4.83,2.08-7.76,2.08-7.76,0-12.29-3.97-12.29-11.8v-13.51h-5.07v-7.33h5.07v-8.01h9.54v8.01h8.19v7.33h-8.19v13.39c0,2.81,1.53,4.34,4.09,4.34,1.41,0,2.81-.43,3.85-1.22l2.57,6.72Z"/>
      <path d="M517.73,77.1l-14.85,34.9c-3.18,7.95-7.7,10.33-13.63,10.33-3.36,0-7.03-1.1-9.17-3l3.48-6.79c1.47,1.28,3.48,2.08,5.38,2.08,2.63,0,4.1-1.16,5.38-4.1l.12-.31-14.24-33.13h9.84l9.23,22.31,9.29-22.31h9.17Z"/>
      <path d="M269.46,140.54l-14,42.79h-10.64l-9.41-28.97-9.72,28.97h-10.57l-14.06-42.79h10.27l9.66,30.08,10.09-30.08h9.17l9.78,30.32,9.96-30.32h9.47Z"/>
      <path d="M269.4,166.89c0-9.9,7.64-16.93,18.09-16.93s18.03,7.03,18.03,16.93-7.58,16.93-18.03,16.93-18.09-7.03-18.09-16.93ZM295.86,166.89c0-5.68-3.61-9.11-8.37-9.11s-8.44,3.42-8.44,9.11,3.67,9.11,8.44,9.11,8.37-3.42,8.37-9.11Z"/>
      <path d="M332.29,149.96v8.8c-.79-.06-1.41-.12-2.14-.12-5.26,0-8.74,2.87-8.74,9.17v15.53h-9.54v-32.89h9.11v4.34c2.32-3.18,6.24-4.83,11.31-4.83Z"/>
      <path d="M337.97,137.98h9.54v45.36h-9.54v-45.36Z"/>
      <path d="M389.87,137.98v45.36h-9.11v-3.79c-2.38,2.87-5.87,4.28-10.27,4.28-9.29,0-16.44-6.6-16.44-16.93s7.15-16.93,16.44-16.93c4.03,0,7.46,1.28,9.84,3.97v-15.95h9.54ZM380.52,166.89c0-5.68-3.67-9.11-8.37-9.11s-8.44,3.42-8.44,9.11,3.67,9.11,8.44,9.11,8.37-3.42,8.37-9.11Z"/>
      <path d="M413.95,161.94c0-12.9,9.9-22.13,23.23-22.13,7.4,0,13.57,2.69,17.6,7.58l-6.36,5.87c-2.87-3.3-6.48-5.01-10.76-5.01-8.01,0-13.69,5.62-13.69,13.69s5.68,13.69,13.69,13.69c4.28,0,7.88-1.71,10.76-5.07l6.36,5.87c-4.03,4.95-10.21,7.64-17.67,7.64-13.26,0-23.17-9.23-23.17-22.13Z"/>
      <path d="M493.04,150.45v32.89h-9.05v-3.91c-2.51,2.87-6.17,4.4-10.21,4.4-8.25,0-14.06-4.65-14.06-14.79v-18.58h9.54v17.18c0,5.5,2.44,7.95,6.66,7.95s7.58-2.81,7.58-8.86v-16.26h9.54Z"/>
      <path d="M537.72,166.89c0,10.33-7.15,16.93-16.38,16.93-4.1,0-7.46-1.28-9.9-3.97v15.34h-9.54v-44.74h9.11v3.79c2.38-2.87,5.93-4.28,10.33-4.28,9.23,0,16.38,6.6,16.38,16.93ZM528.06,166.89c0-5.68-3.61-9.11-8.37-9.11s-8.38,3.42-8.38,9.11,3.61,9.11,8.38,9.11,8.37-3.42,8.37-9.11Z"/>
      <path d="M588.88,180.52v2.81h-29.4v-2.2l18.09-17.97c5.07-5.07,6.05-8.07,6.05-11.31,0-5.38-3.73-8.74-10.82-8.74-5.38,0-9.35,1.59-12.29,4.95l-2.2-1.96c3.24-3.73,8.31-5.87,14.73-5.87,8.38,0,13.75,4.34,13.75,11.31,0,4.1-1.34,7.7-6.97,13.26l-15.77,15.71h24.82Z"/>
      <path d="M594.5,161.94c0-13.39,6.91-21.7,16.75-21.7s16.75,8.31,16.75,21.7-6.91,21.7-16.75,21.7-16.75-8.31-16.75-21.7ZM624.88,161.94c0-11.92-5.56-18.83-13.63-18.83s-13.63,6.91-13.63,18.83,5.56,18.83,13.63,18.83,13.63-6.91,13.63-18.83Z"/>
      <path d="M663.2,180.52v2.81h-29.4v-2.2l18.09-17.97c5.07-5.07,6.05-8.07,6.05-11.31,0-5.38-3.73-8.74-10.82-8.74-5.38,0-9.35,1.59-12.29,4.95l-2.2-1.96c3.24-3.73,8.31-5.87,14.73-5.87,8.37,0,13.75,4.34,13.75,11.31,0,4.1-1.34,7.7-6.97,13.26l-15.77,15.71h24.82Z"/>
      <path d="M697.31,170.99c0,7.15-4.95,12.65-14.98,12.65-6.24,0-12.04-2.32-15.04-5.75l1.59-2.38c2.57,3,7.64,5.26,13.39,5.26,7.89,0,11.92-3.97,11.92-9.66,0-6.11-3.73-9.84-15.34-9.84h-8.68l2.26-20.72h22.68v2.81h-20.05l-1.65,15.1h6.11c13.02,0,17.79,4.95,17.79,12.53Z"/>
    </g>
  </g>
</svg>