<?xml version="1.0" encoding="UTF-8"?>
<svg id="Layer_1" data-name="Layer 1" xmlns="http://www.w3.org/2000/svg" viewBox="0 0 603.87 200">
  <defs>
    <style>
      .cls-1 {
        fill: #151018;
      }

      .cls-1, .cls-2 {
        stroke-width: 0px;
      }

      .cls-2 {
        fill: #9a4df9;
      }
    </style>
  </defs>
  <g>
    <g>
      <path class="cls-1" d="M220.15,45.79h3.12c.33,7.64,5.85,12.76,13.69,12.76s12.16-3.92,12.16-9.97c0-4.78-3.06-8.3-8.64-10.03l-7.91-2.39c-7.17-2.13-10.7-5.98-10.7-11.76,0-7.51,6.05-12.89,14.55-12.89s14.81,5.38,15.48,13.62h-3.12c-.6-6.58-5.45-10.83-12.22-10.83s-11.49,4.12-11.49,9.83c0,4.45,2.66,7.37,8.1,8.97l8.44,2.52c6.98,2.13,10.7,6.51,10.7,12.82,0,7.84-6.11,12.89-15.41,12.89-9.77,0-16.14-5.91-16.74-15.55Z"/>
      <path class="cls-1" d="M260.68,43.33c0-10.56,6.38-18,15.41-18s15.41,7.44,15.41,18-6.31,18-15.41,18-15.41-7.44-15.41-18ZM288.38,43.33c0-8.9-5.05-15.15-12.29-15.15s-12.29,6.24-12.29,15.15,5.05,15.21,12.29,15.21,12.29-6.31,12.29-15.21Z"/>
      <path class="cls-1" d="M329.71,60.34h-3.06v-5.98c-1.93,3.85-7.11,6.98-12.02,6.98-7.57,0-12.42-5.32-12.42-13.62v-21.39h3.12v20.93c0,6.78,3.79,11.23,9.5,11.23,6.51,0,11.76-5.31,11.76-11.83v-20.33h3.12v34.01Z"/>
      <path class="cls-1" d="M341.74,26.32h3.06v6.25c1.99-4.12,7.24-7.24,12.36-7.24,7.77,0,12.76,5.38,12.76,13.68v21.33h-3.12v-20.93c0-6.71-3.92-11.23-9.83-11.23-6.64,0-12.09,5.38-12.09,11.83v20.33h-3.12V26.32Z"/>
      <path class="cls-1" d="M380.27,43.33c0-11.43,6.44-18,14.62-18,6.31,0,10.03,3.99,11.76,7.84V10.84h3.12v49.49h-3.06v-6.98c-1.66,3.85-5.38,7.97-11.83,7.97-8.17,0-14.62-6.58-14.62-18ZM406.58,43.33c0-9.57-4.92-15.08-11.56-15.08s-11.63,5.45-11.63,15.08,4.98,15.15,11.63,15.15,11.56-5.58,11.56-15.15Z"/>
      <path class="cls-1" d="M221.48,74.94h3.92l10.83,22.32,10.83-22.32h3.92v47.83h-3.06v-42.92l-10.1,20.6h-3.26l-10.03-20.6v42.92h-3.06v-47.83Z"/>
      <path class="cls-1" d="M260.68,105.77c0-10.56,6.38-18,15.41-18s15.41,7.44,15.41,18-6.31,18-15.41,18-15.41-7.44-15.41-18ZM288.38,105.77c0-8.9-5.05-15.15-12.29-15.15s-12.29,6.24-12.29,15.15,5.05,15.21,12.29,15.21,12.29-6.31,12.29-15.21Z"/>
      <path class="cls-1" d="M301.87,88.76h3.06v6.25c1.99-4.12,7.24-7.24,12.36-7.24,7.77,0,12.76,5.38,12.76,13.68v21.33h-3.12v-20.93c0-6.71-3.92-11.23-9.83-11.23-6.64,0-12.09,5.38-12.09,11.83v20.33h-3.12v-34.01Z"/>
      <path class="cls-1" d="M340.81,105.84c0-10.43,6.58-18.07,15.68-18.07s15.41,8.04,14.22,18.2h-26.84c.07,8.9,5.05,15.01,12.29,15.01,5.38,0,9.77-3.19,11.09-8.04h3.12c-1.33,6.44-7.11,10.83-14.15,10.83-9.04,0-15.41-7.51-15.41-17.94ZM367.71,103.24c-.13-7.31-4.72-12.62-11.23-12.62s-11.56,5.05-12.49,12.62h23.72Z"/>
      <path class="cls-1" d="M394.82,120.72l-15.88-31.96h3.39l14.15,28.17,12.36-28.17h3.32l-20.93,47.63h-3.32l6.91-15.68Z"/>
      <path class="cls-1" d="M220.15,170.66h3.12c.33,7.64,5.85,12.76,13.69,12.76s12.16-3.92,12.16-9.97c0-4.78-3.06-8.3-8.64-10.03l-7.91-2.39c-7.17-2.13-10.7-5.98-10.7-11.76,0-7.51,6.05-12.89,14.55-12.89s14.81,5.38,15.48,13.62h-3.12c-.6-6.58-5.45-10.83-12.22-10.83s-11.49,4.12-11.49,9.83c0,4.45,2.66,7.37,8.1,8.97l8.44,2.52c6.98,2.13,10.7,6.51,10.7,12.82,0,7.84-6.11,12.89-15.41,12.89-9.77,0-16.14-5.91-16.74-15.55Z"/>
      <path class="cls-1" d="M260.68,168.21c0-10.56,6.38-18,15.41-18s15.41,7.44,15.41,18-6.31,18-15.41,18-15.41-7.44-15.41-18ZM288.38,168.21c0-8.9-5.05-15.15-12.29-15.15s-12.29,6.24-12.29,15.15,5.05,15.21,12.29,15.21,12.29-6.31,12.29-15.21Z"/>
      <path class="cls-1" d="M301.21,182.42h13.15v-43.91h-12.49v-2.79h15.61v46.7h13.22v2.79h-29.5v-2.79Z"/>
      <path class="cls-1" d="M369.57,185.21h-3.06v-5.98c-1.93,3.85-7.11,6.98-12.02,6.98-7.57,0-12.42-5.32-12.42-13.62v-21.39h3.12v20.93c0,6.78,3.79,11.23,9.5,11.23,6.51,0,11.76-5.31,11.76-11.83v-20.33h3.12v34.01Z"/>
      <path class="cls-1" d="M395.95,138.31v12.89h15.15v2.79h-15.15v19.46c0,6.18,3.19,9.57,8.97,9.57,2.13,0,4.72-.47,6.84-1.39v2.92c-1.79.86-4.52,1.4-6.84,1.4-7.64,0-12.09-4.58-12.09-12.29v-19.66h-12.56v-2.79h12.56v-11.29l3.12-1.59Z"/>
      <path class="cls-1" d="M420.8,182.42h13.15v-28.43h-12.49v-2.79h15.61v31.22h13.22v2.79h-29.5v-2.79ZM431.76,138.51c0-2.06,1.73-3.79,3.79-3.79s3.79,1.73,3.79,3.79-1.73,3.72-3.79,3.72-3.79-1.73-3.79-3.72Z"/>
      <path class="cls-1" d="M460,168.21c0-10.56,6.38-18,15.41-18s15.41,7.44,15.41,18-6.31,18-15.41,18-15.41-7.44-15.41-18ZM487.7,168.21c0-8.9-5.05-15.15-12.29-15.15s-12.29,6.24-12.29,15.15,5.05,15.21,12.29,15.21,12.29-6.31,12.29-15.21Z"/>
      <path class="cls-1" d="M501.19,151.2h3.06v6.25c1.99-4.12,7.24-7.24,12.36-7.24,7.77,0,12.76,5.38,12.76,13.68v21.33h-3.12v-20.93c0-6.71-3.92-11.23-9.83-11.23-6.64,0-12.09,5.38-12.09,11.83v20.33h-3.12v-34.01Z"/>
      <path class="cls-1" d="M541.18,174.78h3.06c.66,5.58,4.92,8.7,11.83,8.7,5.85,0,9.9-2.92,9.9-6.84,0-3.52-2.52-5.98-6.64-6.71l-7.57-1.39c-5.65-1-8.84-4.05-8.84-8.64,0-5.58,5.18-9.7,12.22-9.7s12.95,4.58,13.42,10.83h-3.12c-.4-4.58-4.78-8.04-10.3-8.04s-9.1,2.86-9.1,6.78c0,3.19,2.06,4.98,6.11,5.85l7.97,1.53c5.71,1.06,8.97,4.32,8.97,9.43,0,5.58-5.31,9.63-13.09,9.63-8.57,0-14.22-4.32-14.81-11.43Z"/>
    </g>
    <g>
      <g id="_Radial_Repeat_" data-name="&amp;lt;Radial Repeat&amp;gt;">
        <path class="cls-2" d="M97.47,200c-9.53,0-18.51-3.68-25.3-10.38-6.86-6.76-10.67-15.79-10.74-25.41-.14-19.87,15.92-36.16,35.79-36.3.08,0,.17,0,.26,0,19.76,0,35.9,16,36.04,35.79.07,9.63-3.62,18.7-10.38,25.56-6.76,6.86-15.78,10.67-25.41,10.74-.09,0-.17,0-.26,0ZM97.48,130.3c-.08,0-.16,0-.24,0-18.55.13-33.54,15.33-33.41,33.89.06,8.99,3.62,17.41,10.02,23.73,6.34,6.25,14.72,9.69,23.62,9.69.08,0,.16,0,.24,0,8.99-.06,17.41-3.62,23.73-10.02,6.31-6.4,9.75-14.87,9.69-23.86-.13-18.47-15.2-33.42-33.65-33.42Z"/>
      </g>
      <g id="_Radial_Repeat_-2" data-name="&amp;lt;Radial Repeat&amp;gt;">
        <path class="cls-2" d="M59.72,188.06c-7.46,0-14.72-2.32-20.9-6.74-16.16-11.57-19.89-34.13-8.33-50.29h0c5.6-7.83,13.92-13.01,23.42-14.58,9.5-1.57,19.04.65,26.87,6.25,16.16,11.57,19.9,34.13,8.33,50.29-5.6,7.83-13.92,13.01-23.42,14.58-1.99.33-3.99.49-5.96.49ZM59.87,118.35c-1.85,0-3.71.15-5.57.46-8.87,1.47-16.63,6.3-21.87,13.61h0c-10.8,15.09-7.31,36.15,7.77,46.95,7.31,5.23,16.22,7.3,25.09,5.84,8.87-1.47,16.63-6.3,21.87-13.61,10.8-15.09,7.31-36.15-7.77-46.95-5.78-4.13-12.55-6.3-19.52-6.3Z"/>
      </g>
      <g id="_Radial_Repeat_-3" data-name="&amp;lt;Radial Repeat&amp;gt;">
        <path class="cls-2" d="M36.3,156.25c-5.53,0-11.02-1.29-16.1-3.83-8.61-4.31-15.02-11.72-18.06-20.85-6.27-18.86,3.96-39.3,22.82-45.58,9.14-3.04,18.91-2.34,27.52,1.97,8.61,4.31,15.02,11.72,18.06,20.85,3.04,9.14,2.34,18.91-1.97,27.52-4.31,8.61-11.72,15.02-20.85,18.06-3.74,1.24-7.59,1.86-11.41,1.86ZM36.37,86.52c-3.57,0-7.16.58-10.66,1.74-17.61,5.86-27.17,24.95-21.31,42.55,2.84,8.53,8.83,15.44,16.86,19.47,8.04,4.02,17.16,4.68,25.69,1.84,8.53-2.84,15.44-8.83,19.47-16.86,4.02-8.04,4.68-17.16,1.84-25.69-2.84-8.53-8.83-15.44-16.86-19.47-4.75-2.38-9.87-3.58-15.03-3.58Z"/>
      </g>
      <g id="_Radial_Repeat_-4" data-name="&amp;lt;Radial Repeat&amp;gt;">
        <path class="cls-2" d="M36.04,116.71c-3.6,0-7.26-.54-10.88-1.69-9.18-2.91-16.67-9.22-21.1-17.77s-5.27-18.31-2.36-27.49c2.91-9.18,9.22-16.67,17.77-21.1,8.55-4.43,18.31-5.27,27.49-2.36,18.94,6.01,29.47,26.31,23.46,45.26-4.86,15.33-19.09,25.15-34.38,25.15ZM36.02,47c-5.32,0-10.59,1.28-15.45,3.79-7.98,4.14-13.87,11.13-16.59,19.7-2.72,8.57-1.94,17.68,2.2,25.66,4.14,7.98,11.13,13.87,19.7,16.59,17.69,5.61,36.64-4.21,42.25-21.9,5.61-17.69-4.22-36.64-21.9-42.25h0c-3.35-1.06-6.79-1.59-10.21-1.59Z"/>
      </g>
      <g id="_Radial_Repeat_-5" data-name="&amp;lt;Radial Repeat&amp;gt;">
        <path class="cls-2" d="M59.12,84.55c-11.07,0-22-5.07-29.06-14.64-5.71-7.75-8.07-17.26-6.63-26.78,1.44-9.52,6.5-17.91,14.25-23.62,7.75-5.71,17.26-8.06,26.78-6.63,9.52,1.44,17.91,6.5,23.62,14.25h0c11.79,16,8.38,38.61-7.62,50.4-6.42,4.74-13.92,7.02-21.34,7.02ZM59.03,14.88c-6.94,0-13.93,2.13-19.93,6.55-7.23,5.33-11.96,13.17-13.3,22.05-1.34,8.89.85,17.77,6.19,25,5.33,7.24,13.17,11.96,22.05,13.3,8.89,1.34,17.77-.85,25-6.19,14.93-11.01,18.12-32.12,7.12-47.06h0c-6.59-8.94-16.8-13.67-27.13-13.67Z"/>
      </g>
      <g id="_Radial_Repeat_-6" data-name="&amp;lt;Radial Repeat&amp;gt;">
        <path class="cls-2" d="M96.58,72.09c-19.76,0-35.9-16-36.04-35.79-.07-9.63,3.62-18.7,10.38-25.56S86.7.07,96.33,0c9.65-.07,18.71,3.62,25.56,10.38,6.86,6.76,10.67,15.79,10.74,25.41h0c.14,19.87-15.92,36.16-35.79,36.3-.08,0-.17,0-.26,0ZM96.59,2.39c-.08,0-.16,0-.24,0-8.99.06-17.41,3.62-23.73,10.02-6.31,6.4-9.75,14.87-9.69,23.86.13,18.47,15.2,33.42,33.65,33.42.08,0,.16,0,.24,0,18.55-.13,33.54-15.33,33.41-33.89h0c-.06-8.99-3.62-17.41-10.02-23.73-6.34-6.25-14.72-9.69-23.62-9.69Z"/>
      </g>
      <g id="_Radial_Repeat_-7" data-name="&amp;lt;Radial Repeat&amp;gt;">
        <path class="cls-2" d="M134.21,84.03c-7.26,0-14.59-2.18-20.93-6.72-16.16-11.57-19.9-34.13-8.33-50.29,5.6-7.83,13.92-13.01,23.42-14.58,9.5-1.57,19.04.65,26.87,6.25,7.83,5.6,13.01,13.92,14.58,23.42,1.57,9.5-.65,19.04-6.25,26.87h0c-7.03,9.82-18.12,15.05-29.36,15.05ZM134.33,14.34c-1.85,0-3.71.15-5.57.46-8.87,1.47-16.63,6.3-21.87,13.61-10.8,15.09-7.31,36.15,7.77,46.95s36.15,7.31,46.95-7.77c5.23-7.31,7.31-16.22,5.84-25.09s-6.3-16.63-13.61-21.86c-5.78-4.14-12.55-6.3-19.52-6.3Z"/>
      </g>
      <g id="_Radial_Repeat_-8" data-name="&amp;lt;Radial Repeat&amp;gt;">
        <path class="cls-2" d="M157.68,115.87c-5.53,0-11.02-1.29-16.1-3.83-8.61-4.31-15.02-11.72-18.06-20.85-6.27-18.86,3.96-39.3,22.82-45.58,9.14-3.04,18.91-2.34,27.52,1.97,8.61,4.31,15.02,11.72,18.06,20.85,3.04,9.14,2.34,18.91-1.97,27.52s-11.72,15.02-20.85,18.06h0c-3.74,1.24-7.59,1.86-11.41,1.86ZM157.75,46.14c-3.57,0-7.16.58-10.66,1.74-8.53,2.84-15.44,8.83-19.47,16.86s-4.68,17.16-1.84,25.69,8.83,15.44,16.86,19.47c8.04,4.02,17.16,4.68,25.69,1.84h0c8.53-2.84,15.44-8.83,19.47-16.86,4.02-8.04,4.68-17.16,1.84-25.69s-8.83-15.44-16.86-19.47c-4.75-2.38-9.87-3.58-15.03-3.58Z"/>
      </g>
      <g id="_Radial_Repeat_-9" data-name="&amp;lt;Radial Repeat&amp;gt;">
        <path class="cls-2" d="M158.03,155.4c-3.66,0-7.35-.57-10.94-1.71-18.94-6.01-29.47-26.31-23.46-45.26,6.01-18.94,26.31-29.46,45.26-23.46,9.18,2.91,16.67,9.22,21.1,17.77,4.43,8.55,5.27,18.31,2.36,27.49-2.91,9.18-9.22,16.67-17.77,21.1-5.2,2.7-10.85,4.06-16.55,4.06ZM158.01,85.68c-14.28,0-27.56,9.16-32.1,23.48-5.61,17.69,4.22,36.64,21.9,42.25h0c8.57,2.72,17.68,1.94,25.66-2.2,7.98-4.14,13.87-11.13,16.59-19.7,2.72-8.57,1.94-17.68-2.2-25.66-4.14-7.98-11.13-13.87-19.7-16.59-3.37-1.07-6.79-1.58-10.15-1.58Z"/>
      </g>
      <g id="_Radial_Repeat_-10" data-name="&amp;lt;Radial Repeat&amp;gt;">
        <path class="cls-2" d="M135.03,187.51c-11.07,0-22-5.07-29.06-14.64-11.79-16-8.38-38.61,7.62-50.4,7.75-5.71,17.26-8.07,26.78-6.63,9.52,1.44,17.91,6.5,23.62,14.25,5.71,7.75,8.07,17.26,6.63,26.78-1.44,9.52-6.5,17.91-14.25,23.62-6.42,4.74-13.92,7.02-21.35,7.02ZM134.91,117.82c-7.13,0-14.05,2.26-19.9,6.57-14.93,11.01-18.13,32.12-7.11,47.06,5.33,7.24,13.17,11.96,22.05,13.3,8.89,1.34,17.77-.85,25-6.19,7.23-5.33,11.96-13.17,13.3-22.05,1.34-8.89-.85-17.77-6.19-25-5.33-7.24-13.17-11.96-22.05-13.3-1.71-.26-3.41-.38-5.1-.38Z"/>
      </g>
    </g>
  </g>
  <path class="cls-1" d="M577.49,151.26v-1.78h10.94v1.78h-4.51v11.56h-1.92v-11.56h-4.51ZM590.16,162.82v-13.34h1.82l5.08,11.32,4.99-11.32h1.82v13.34h-1.82v-9.35l-4.13,9.35h-1.78l-4.17-9.21v9.21h-1.82Z"/>
</svg>