<?xml version="1.0" encoding="UTF-8"?>
<svg id="Layer_1" xmlns="http://www.w3.org/2000/svg" version="1.1" viewBox="0 0 81.5 25">
  <!-- Generator: Adobe Illustrator 29.5.1, SVG Export Plug-In . SVG Version: 2.1.0 Build 141)  -->
  <path d="M50.19,16.39h-19.1c.31,4.02,5.57,4.15,8.65,3.92,1.74-.13,3.52-.76,4.51-2.26h5.79c-1.27,4.2-4.97,6.1-9.1,6.62-6.22.78-15.24-.65-15.86-8.35-.76-9.31,9.03-11.6,16.39-10.23,5.53,1.03,8.84,4.51,8.72,10.31ZM44.03,13.08c-.45-1.99-2.44-2.84-4.31-3.14-2.89-.46-7.46-.22-8.48,3.14h12.78Z"/>
  <polygon points="74.22 6.34 64.6 15.29 74.22 24.23 66.48 24.23 60.76 18.52 55.05 24.23 47.3 24.23 56.92 15.29 47.3 6.34 55.05 6.34 60.76 12.05 66.48 6.34 74.22 6.34"/>
  <polygon points="5.99 6.32 13.51 20.91 20.96 6.32 26.97 6.32 17.73 24.22 9.25 24.19 .2 6.32 5.99 6.32"/>
  <rect x="75.43" y=".15" width="5.87" height="24.06"/>
</svg>