<?xml version="1.0" encoding="UTF-8"?>
<svg id="Layer_2" xmlns="http://www.w3.org/2000/svg" version="1.1" viewBox="0 0 296.5 259.8">
  <!-- Generator: Adobe Illustrator 29.4.0, SVG Export Plug-In . SVG Version: 2.1.0 Build 152)  -->
  <defs>
    <style>
      .st0 {
        fill: none;
      }

      .st1 {
        fill: #2b1b54;
      }

      .st2 {
        fill: #fd859d;
      }

      .st3 {
        fill: #f7931a;
      }
    </style>
  </defs>
  <g id="Layer_1-2">
    <g>
      <g>
        <path class="st0" d="M56.7,75.5c1.2,1,1.9.3,2.2-.6.3-1.4,1.1-4.3,1.8-6-9.1,2.3-4.3,6.3-4,6.6h0Z"/>
        <path class="st0" d="M235.4,68.6c.7,1.7,1.5,4.6,1.8,6,.2.9,1,1.7,2.2.6.4-.3,5.1-4.3-4-6.6Z"/>
        <g>
          <path class="st0" d="M56.7,75.5c1.2,1,1.9.3,2.2-.6.3-1.4,1.1-4.3,1.8-6-9.1,2.3-4.3,6.3-4,6.6h0Z"/>
          <path class="st0" d="M235.4,68.6c.7,1.7,1.5,4.6,1.8,6,.2.9,1,1.7,2.2.6.4-.3,5.1-4.3-4-6.6Z"/>
          <path class="st1" d="M252.4,44.8c-4.1-8-15.2-25.4-21-33.5s-6.5-11.3-6.5-11.3c-4.7,8.9,10.9,34.1,18.3,49.7,1.5,3.1,2.1,4.9,2.4,7.4-3.9-1.3-10.1-1.9-16.2-2.6-3.8-8.6-8.4-18.5-15.9-30.5C195.7-4.5,180.6.4,180.6.4c17.9,12.6,32.6,46,32.6,46,0,0,1.4,2.4,3.4,6.9-3.4-.7-6.6-1.5-9.6-2.7-15.7-6-17.4-17.7-17.4-17.7-4.3,16.7,15.8,28.2,31.9,32.8.5,1.6,1.1,3.2,1.6,4.9,5,16.2-15.3,24.5-15.3,24.5-.8-9.8-7.7-15.3-18-21-10.2-5.6-13.1-11.4-13.1-11.4-2.8,9,11.4,22.2,15.2,26.1,4.1,4.2,4.7,10,3.1,12.9-2.2,3.9-12.1,8.5-13.9,8.9-1,.2-2.2,0-2.3-2.7-.1-7.7-3-10.3-5.2-13.7-2.1-3.2-8.2-9.5-8.2-9.5,0,5,1.6,8,2.8,13.3,1.2,5.4,1.7,9.4,0,12.5-3,5.3-20.1,5.7-20.1,5.7,0,0-17.1-.4-20.1-5.7-1.8-3.1-1.3-7.1-.1-12.5,1.2-5.4,2.7-8.3,2.7-13.3,0,0-6.1,6.3-8.2,9.5-2.2,3.3-5,6-5.1,13.7,0,2.6-1.3,2.9-2.3,2.7-1.7-.4-11.7-4.9-13.9-8.8-1.6-2.9-1.1-8.7,3.1-12.9,3.8-3.9,18-17.2,15.1-26.2,0,0-2.9,5.8-13,11.4-10.3,5.7-17.2,11.2-18,21,0,0-20.3-8.3-15.4-24.5.5-1.7,1.1-3.4,1.6-4.9,16-4.7,36.1-16.2,31.7-32.9,0,0-1.7,11.7-17.3,17.8-2.9,1.2-6.2,2-9.6,2.7,2-4.5,3.3-6.9,3.3-6.9,0,0,14.6-33.5,32.5-46.1,0,0-15.2-4.9-32.9,23.6-7.5,12.1-12.1,21.9-15.8,30.5-6.1.8-12.2,1.4-16.2,2.7.4-2.5.9-4.3,2.4-7.4,7.3-15.6,22.8-40.8,18.1-49.7,0,0-.8,3.1-6.5,11.3-5.7,8.2-16.8,25.6-20.8,33.6-4,7.9-11.3,28.6,6.8,40.8,14.5,9.7,36.5,28.4,43.1,31-6.7-2-22.3-3.1-33,.7,0,0,1.9,18.4,20.1,25.4,4.6,1.8,8.7,3,12.2,3.9,1-3.2,3.9-5.6,7.4-5.6h5.9c0-.1.9-.1.9-.1l-.2-9.8c0-2.3.9-4.6,2.7-6.1,1.5-1.3,3.3-2,5.2-2s.8,0,1.1,0l10.6,1.5c3.9.6,6.8,3.9,6.8,7.8,0,.5,0,1.1,0,1.7l30.6-.6c0-1.1,0-2.3-.1-3.4,0-2.1.7-4.2,2.1-5.7,1.5-1.6,3.5-2.4,5.6-2.5l9.4-.2h.2c2,0,4,.8,5.5,2.2,1.5,1.5,2.4,3.5,2.4,5.6l.2,9.8h6.6c0-.1.1-.1.2-.1,4.2,0,7.6,3.2,7.9,7.4,3.5-.9,7.6-2.2,12.2-4,18.2-7.1,20-25.4,20-25.4-10.7-3.8-26.3-2.7-33-.6,6.6-2.6,28.6-21.4,43-31.2,18.1-12.2,10.7-32.9,6.6-40.8h0ZM58.9,74.9c-.2.9-1,1.7-2.2.6-.3-.3-5.2-4.3,4-6.6-.7,1.7-1.5,4.6-1.8,6h0ZM239.4,75.2c-1.2,1-1.9.3-2.2-.6-.4-1.4-1.1-4.3-1.8-6,9.1,2.3,4.3,6.3,4,6.6Z"/>
          <path class="st3" d="M181.3,147.6c0-1.9-.1-3.8-.2-5.6h0l-.2-12.1-9.4.2s.2,6.4.1,6.4h0c0,3.6-2,4.8-3.8,5.1l-39.6.8c-1.1-.1-2.9-.8-3-3.2h0c0,0-.1-6.4-.1-6.4l-10.6-1.5.2,11.5c0,2.1,0,4.2,0,6.3l-8.7.2h-5.9c0,.1.2,8.9.2,8.9h3.6c0,0,10.9-.3,10.9-.3,0,2.4,0,4.8,0,7l-12.7.2h-1.7s0,2.9,0,2.9v5.9c.1,0,14.7-.3,14.7-.3,1.2,14.8,5.1,25.1,19,26.1.8,0,1.5,0,2.2,0,9.7,0,14.1-5.2,15.8-13.1,2.4,4.5,6.3,7.4,12.4,7.4s1.6,0,2.5-.2c10.4-1.2,13.7-10.3,14.5-21.7l14.5-.3v-2.1s-.2-6.7-.2-6.7h-2.4c0,0-11.7.3-11.7.3,0-2.3-.1-4.7-.2-7l10.2-.2h4c0,0-.2-7.8-.2-7.8v-1s-14.5.3-14.5.3h0ZM135.8,182.3h-.2c-8.2,0-9.6-10.8-9.9-18.5,0-2.4,0-4.6,0-6l19.4-.4c0,1.3.1,3.2.2,5.4.2,7.9-.5,19.3-9.4,19.5h0ZM171.6,164.6c-.2,6.1-1.7,12.9-8.6,13h-.2c-7.1,0-8.6-8.2-8.9-14.6-.1-2.4,0-4.5-.1-5.8l17.6-.4c0,1.7.3,4.6.2,7.8h0Z"/>
        </g>
      </g>
      <path class="st2" d="M159.5,197.1c-2.4,0-4.1-1-5.2-2.7-.2-.2-.5-.2-.6,0-.8,2.6-2.8,5.4-5.6,6.4-1.3.5-1.9,2.1-.9,3.1s2.9,1.9,4.8,2.2c1.2.2,3-.1,4.1-.6,6.1-2.8,5.4-8.8,4.5-8.6-.4,0-.8,0-1.1,0h0Z"/>
      <g>
        <path class="st1" d="M1.5,239.5c2,.2,5.1.1,8.2-.9,3.4-1.1,5.2-3,5.2-5.1s-1.6-2.8-5.5-2.9c-5.4-.1-9-1.6-9-6.4s4.7-11.9,12.4-14.2c3.7-1.1,6.4-1,8.3-.6-.7,2.6-1,3.8-1.6,6.4-1.3-.3-3.6-.6-6.9.4s-4.8,3-4.8,4.7,1.9,2.4,6.1,2.7c5.8.5,8.5,2.9,8.5,7.5s-4.2,10.9-13.2,13.9c-3.7,1.2-7.4,1.7-9.3,1.4.6-2.7.9-4,1.5-6.7h0Z"/>
        <path class="st1" d="M35.1,229.8c-.9,3.5-1.4,5.3-2.3,8.8-3.1.5-4.6.8-7.7,1.5,3.3-11.5,6.6-23.1,10-34.6,3.9-.6,5.8-.8,9.7-1.2,3.4,10.7,6.8,21.4,10.2,32.1-3.2.1-4.8.2-8,.5-1-3.3-1.5-4.9-2.5-8.2-3.8.4-5.6.6-9.4,1.1h0ZM43.4,223.2c-.8-2.7-1.2-4-2-6.7-.6-1.9-1.2-4.2-1.7-6.1,0,0,0,0,0,0-.5,2-1,4.5-1.5,6.5-.8,2.9-1.2,4.3-1.9,7.2,2.9-.4,4.3-.6,7.2-.9h0Z"/>
        <path class="st1" d="M61.6,209.7c-3.5,0-5.3,0-8.8.2v-6.2c10.1-.5,15.1-.4,25.2.3v6.2c-3.6-.2-5.4-.3-8.9-.4v26.5c-3,0-4.5-.1-7.4,0v-26.5h0Z"/>
        <path class="st1" d="M99.2,206.2v12.6c4.9.7,7.3,1,12.2,1.8v-12.6c2.9.5,4.4.7,7.4,1.3v32.7c-2.9-.5-4.4-.8-7.4-1.3v-13.7c-4.9-.8-7.3-1.2-12.2-1.8v13.7c-3-.4-4.5-.6-7.4-.9v-32.7c3,.3,4.5.5,7.4.9Z"/>
        <path class="st1" d="M132.6,211.9v18.8c0,5.6,2.1,8.9,5.9,9.7,3.9.8,6-1.5,6-7.3v-18.8c2.9.6,4.4.9,7.4,1.5v18.4c0,10.1-5.1,13.9-13.6,12.2-8.3-1.6-13.1-7.1-13.1-17.6v-18.3c3,.6,4.5.8,7.4,1.4h0Z"/>
        <path class="st1" d="M158.3,249.8v-32.7c3.5.7,5.2,1,8.6,1.7,2.7,5.3,4.1,8,6.8,13.3,1.9,3.8,3.9,8.2,5.3,12.2,0,0,0,0,.1,0-.5-4.4-.6-8.9-.6-13.8v-9.6c2.7.5,4.1.7,6.8,1.2v32.7c-3.1-.5-4.7-.8-7.8-1.3-2.8-5.6-4.2-8.3-7-13.9-1.9-3.9-4.1-8.5-5.7-12.6,0,0,0,0-.1,0,.2,4.4.3,9,.3,14.3v9.9c-2.7-.5-4.1-.8-6.8-1.3h0Z"/>
        <path class="st1" d="M198.1,230.2c-3.5-.5-5.3-.7-8.8-1.3v-6.2c10.1,1.6,15.1,2.2,25.2,3v6.2c-3.6-.3-5.4-.5-8.9-.9v26.5c-3-.3-4.5-.5-7.4-.9v-26.5h0Z"/>
        <path class="st1" d="M237.9,245.4c-4.8,0-7.2,0-12-.1v7.8c5.4.2,8.1.2,13.4,0v6.1c-8.4.2-12.5.1-20.9-.5v-32.7c8.1.5,12.1.7,20.2.5v6.1c-5.1.1-7.7,0-12.8,0v6.8c4.8.2,7.2.2,12,.1v6h0Z"/>
        <path class="st1" d="M244.4,226.7c2.4-.5,5.9-1,9.9-1.5,4.9-.5,8.3-.4,10.6,1.1,1.9,1.2,3,3.3,3,6.3s-3,7.6-5.8,9.1h0c2.3.7,3.5,2.7,4.4,5.5,1,3.5,2,7.6,2.7,8.7-3,.6-4.5.9-7.6,1.3-.5-.8-1.4-3.4-2.3-7.3-.9-3.9-2.3-4.9-5.3-4.6-.9,0-1.3.1-2.2.2v12.9c-2.9.3-4.4.4-7.3.5v-32.3h0ZM251.7,240.2c1.2-.1,1.8-.2,2.9-.3,3.7-.4,5.9-2.6,5.9-5.5s-2.1-4.2-5.4-3.9c-1.8.2-2.8.4-3.4.6v9Z"/>
        <path class="st1" d="M271,251.6c5.3-8.8,10.5-17.7,15.6-26.6v-.2c-5.6,1.8-8.5,2.6-14.1,3.9v-6.1c9.5-2.1,14.2-3.6,23.8-7.4v4.3c-4.9,9.2-10,18.3-15.2,27.4v.2c6.2-1.8,9.3-2.8,15.5-5.3v6.1c-10.2,4.1-15.3,5.6-25.5,7.8v-4h0Z"/>
      </g>
    </g>
  </g>
  <path d="M135.4,186.6l-7-10.8-6.8,10.8h-15.6l14.7-20.5-14.2-20.1h15.4l6.9,10.2,6.7-10.2h14.7l-14.1,19.6,15,21h-15.7Z"/>
  <path d="M175,186.6l-7-10.8-6.8,10.8h-15.6l14.7-20.5-14.2-20.1h15.4l6.9,10.2,6.7-10.2h14.7l-14.1,19.6,15,21h-15.7Z"/>
</svg>