<?xml version="1.0" encoding="UTF-8"?>
<svg id="Layer_2" data-name="Layer 2" xmlns="http://www.w3.org/2000/svg" viewBox="0 0 296.5 259.8">
  <defs>
    <style>
      .cls-1 {
        fill: none;
      }

      .cls-2 {
        fill: #2b1b54;
      }

      .cls-3 {
        fill: #fd859d;
      }

      .cls-4 {
        fill: #f7931a;
      }
    </style>
  </defs>
  <g id="Layer_1-2" data-name="Layer 1">
    <g>
      <g>
        <path class="cls-1" d="M56.71,75.52c1.21,1.03,1.94.26,2.16-.63.35-1.38,1.07-4.3,1.79-6-9.12,2.32-4.3,6.33-3.96,6.63Z"/>
        <path class="cls-1" d="M235.38,68.56c.73,1.69,1.46,4.61,1.81,5.99.23.89.96,1.66,2.17.62.35-.3,5.15-4.33-3.98-6.61Z"/>
        <g>
          <path class="cls-1" d="M56.71,75.52c1.21,1.03,1.94.26,2.16-.63.35-1.38,1.07-4.3,1.79-6-9.12,2.32-4.3,6.33-3.96,6.63Z"/>
          <path class="cls-1" d="M235.38,68.56c.73,1.69,1.46,4.61,1.81,5.99.23.89.96,1.66,2.17.62.35-.3,5.15-4.33-3.98-6.61Z"/>
          <path class="cls-2" d="M252.41,44.77c-4.11-7.99-15.25-25.35-20.97-33.5-5.72-8.15-6.51-11.27-6.51-11.27-4.68,8.94,10.92,34.07,18.31,49.66,1.46,3.08,2.05,4.86,2.42,7.37-3.94-1.28-10.05-1.86-16.16-2.6-3.75-8.62-8.4-18.46-15.93-30.49C195.74-4.54,180.55.41,180.55.41c17.91,12.6,32.62,46,32.62,46,0,0,1.36,2.44,3.35,6.91-3.38-.67-6.64-1.52-9.6-2.65-15.66-6.01-17.36-17.74-17.36-17.74-4.31,16.72,15.82,28.19,31.86,32.81.54,1.56,1.11,3.19,1.64,4.92,5.01,16.15-15.27,24.51-15.27,24.51-.81-9.8-7.74-15.32-18.04-20.99-10.16-5.6-13.05-11.38-13.05-11.38-2.83,9.01,11.38,22.25,15.2,26.13,4.14,4.21,4.74,10.04,3.11,12.94-2.23,3.95-12.14,8.53-13.87,8.9-.98.21-2.24-.06-2.29-2.68-.15-7.7-2.97-10.35-5.16-13.69-2.1-3.2-8.18-9.5-8.18-9.5.09,5.03,1.61,7.96,2.79,13.33,1.18,5.36,1.69,9.39-.06,12.49-2.97,5.26-20.11,5.74-20.11,5.74,0,0-17.14-.41-20.14-5.66-1.77-3.1-1.27-7.13-.11-12.49,1.16-5.37,2.67-8.31,2.74-13.34,0,0-6.06,6.32-8.15,9.53-2.18,3.35-4.99,6.01-5.11,13.71-.04,2.62-1.3,2.89-2.28,2.69-1.73-.36-11.66-4.9-13.9-8.85-1.64-2.89-1.06-8.72,3.06-12.95,3.81-3.9,17.97-17.2,15.1-26.19,0,0-2.86,5.8-13,11.43-10.28,5.71-17.18,11.25-17.96,21.05,0,0-20.31-8.29-15.36-24.46.53-1.73,1.08-3.36,1.62-4.92,16.02-4.68,36.11-16.23,31.74-32.93,0,0-1.66,11.74-17.3,17.81-2.95,1.15-6.22,2-9.59,2.69,1.97-4.48,3.32-6.93,3.32-6.93,0,0,14.58-33.46,32.45-46.12,0,0-15.21-4.89-32.94,23.65-7.49,12.06-12.11,21.92-15.82,30.55-6.11.76-12.22,1.37-16.15,2.66.37-2.51.94-4.29,2.39-7.38,7.34-15.61,22.84-40.8,18.13-49.73,0,0-.78,3.12-6.46,11.29-5.69,8.17-16.77,25.58-20.85,33.58-4.03,7.91-11.32,28.65,6.79,40.8,14.46,9.7,36.51,28.45,43.09,31.03-6.7-2.03-22.3-3.06-33.03.73,0,0,1.88,18.36,20.09,25.37,4.6,1.77,8.67,3.02,12.2,3.91.97-3.19,3.87-5.56,7.39-5.64l5.89-.12.88-.02-.2-9.84c-.05-2.33.93-4.56,2.68-6.1,1.46-1.29,3.33-1.98,5.24-1.98.38,0,.76.03,1.14.08l10.55,1.54c3.88.57,6.76,3.88,6.78,7.8,0,.54,0,1.11.01,1.67l30.64-.62c-.03-1.05-.07-2.29-.12-3.39-.08-2.13.69-4.2,2.15-5.74,1.46-1.55,3.48-2.44,5.61-2.49l9.41-.19c.05,0,.11,0,.16,0,2.04,0,4.01.79,5.49,2.21,1.52,1.46,2.39,3.46,2.43,5.56l.19,9.83,6.58-.13c.05,0,.11,0,.16,0,4.16,0,7.57,3.23,7.87,7.35,3.53-.9,7.59-2.16,12.2-3.96,18.18-7.08,19.99-25.45,19.99-25.45-10.74-3.75-26.34-2.66-33.03-.61,6.57-2.6,28.55-21.43,42.97-31.19,18.06-12.21,10.69-32.94,6.64-40.83ZM58.87,74.89c-.22.89-.95,1.67-2.16.63-.35-.3-5.16-4.31,3.96-6.63-.72,1.69-1.45,4.62-1.79,6ZM239.36,75.18c-1.21,1.04-1.94.26-2.17-.62-.35-1.38-1.09-4.3-1.81-5.99,9.13,2.28,4.33,6.32,3.98,6.61Z"/>
          <path class="cls-4" d="M181.3,147.65c-.08-1.91-.15-3.78-.19-5.6h.04s-.24-12.15-.24-12.15l-9.41.19s.25,6.4.14,6.4c0,0,0,0,0,0,.07,3.57-1.98,4.77-3.76,5.14l-39.64.8c-1.13-.13-2.93-.76-2.98-3.25,0,0,0,0,0,0-.1,0-.12-6.4-.12-6.4l-10.55-1.54.23,11.46c.04,2.13.05,4.23.07,6.29l-8.74.18-5.89.12.18,8.8,3.58-.07,10.9-.22c0,2.42.03,4.76.07,7.04l-12.7.25-1.71.03.06,2.88.12,5.93,14.61-.29c1.15,14.79,5.09,25.08,19.02,26.09.75.05,1.47.08,2.17.08,9.69,0,14.06-5.2,15.79-13.08,2.39,4.47,6.3,7.41,12.44,7.41.81,0,1.65-.05,2.53-.16,10.41-1.21,13.73-10.29,14.5-21.68l14.47-.29-.04-2.12-.14-6.69-2.36.05-11.73.24c-.05-2.32-.14-4.68-.23-7.03l10.23-.2,3.96-.08-.16-7.76-.02-1.04-14.47.29ZM135.75,182.29c-.06,0-.13,0-.19,0-8.18,0-9.63-10.77-9.91-18.53-.09-2.43-.06-4.56-.09-5.97l19.39-.39c.03,1.31.15,3.22.2,5.41.19,7.85-.48,19.29-9.39,19.47ZM171.58,164.62c-.2,6.06-1.71,12.88-8.55,13.02-.06,0-.12,0-.19,0-7.12,0-8.6-8.24-8.91-14.61-.12-2.36-.08-4.47-.11-5.81l17.59-.35c.03,1.69.28,4.62.17,7.75Z"/>
        </g>
      </g>
      <path class="cls-3" d="M159.53,197.1c-2.43,0-4.08-1.03-5.16-2.66-.16-.24-.49-.21-.58.07-.79,2.62-2.77,5.36-5.55,6.4-1.34.5-1.95,2.14-.94,3.15,1.19,1.19,2.9,1.9,4.75,2.19,1.16.18,3-.11,4.06-.6,6.05-2.83,5.45-8.76,4.54-8.62-.39.06-.77.07-1.13.07Z"/>
      <g>
        <path class="cls-2" d="M1.51,239.53c1.99.24,5.05.13,8.21-.9,3.4-1.11,5.2-3.01,5.2-5.14s-1.57-2.83-5.49-2.92c-5.41-.13-8.98-1.63-8.98-6.39,0-5.59,4.66-11.86,12.38-14.21,3.69-1.12,6.41-1.03,8.35-.63-.66,2.55-.99,3.83-1.65,6.38-1.31-.3-3.64-.62-6.85.36-3.21.98-4.76,2.99-4.76,4.69,0,2.09,1.86,2.35,6.07,2.69,5.75.46,8.5,2.9,8.5,7.52,0,5.49-4.22,10.9-13.21,13.86-3.74,1.23-7.43,1.68-9.28,1.41.6-2.69.9-4.03,1.51-6.72Z"/>
        <path class="cls-2" d="M35.11,229.82c-.93,3.5-1.4,5.26-2.33,8.77-3.07.51-4.6.8-7.67,1.46,3.31-11.53,6.64-23.05,10-34.56,3.89-.59,5.83-.82,9.71-1.18,3.4,10.69,6.78,21.38,10.15,32.07-3.19.12-4.78.21-7.96.47-1.01-3.28-1.52-4.92-2.53-8.18-3.75.36-5.62.58-9.37,1.15ZM43.41,223.24c-.82-2.7-1.22-4.04-2.04-6.73-.58-1.88-1.17-4.24-1.65-6.12-.04,0-.06,0-.1.01-.49,2-.97,4.54-1.51,6.51-.78,2.88-1.17,4.32-1.94,7.21,2.89-.42,4.34-.59,7.24-.89Z"/>
        <path class="cls-2" d="M61.62,209.73c-3.52.02-5.27.06-8.79.23v-6.22c10.06-.49,15.09-.38,25.16.28v6.22c-3.57-.24-5.36-.32-8.94-.43,0,10.61,0,15.91,0,26.52-2.97-.09-4.46-.11-7.43-.09,0-10.61,0-15.91,0-26.52Z"/>
        <path class="cls-2" d="M99.16,206.2c0,5.03,0,7.55,0,12.58,4.88.66,7.31,1.03,12.19,1.83,0-5.03,0-7.55,0-12.58,2.95.48,4.43.74,7.38,1.26,0,10.91,0,21.82,0,32.73-2.95-.52-4.43-.78-7.38-1.26,0-5.48,0-8.22,0-13.7-4.88-.8-7.31-1.17-12.19-1.83,0,5.48,0,8.22,0,13.7-2.97-.4-4.46-.59-7.43-.93,0-10.91,0-21.82,0-32.73,2.97.34,4.46.53,7.43.93Z"/>
        <path class="cls-2" d="M132.57,211.89c0,7.54,0,11.31,0,18.84,0,5.63,2.14,8.91,5.92,9.67,3.89.77,6.02-1.51,6.02-7.29,0-7.54,0-11.31,0-18.84,2.95.59,4.43.89,7.38,1.49,0,7.34,0,11.01,0,18.36,0,10.1-5.1,13.87-13.65,12.16-8.26-1.64-13.11-7.11-13.11-17.55,0-7.3,0-10.96,0-18.26,2.97.56,4.46.84,7.43,1.42Z"/>
        <path class="cls-2" d="M158.3,249.77c0-10.91,0-21.82,0-32.73,3.46.69,5.19,1.03,8.64,1.69,2.72,5.32,4.08,7.98,6.8,13.27,1.94,3.8,3.89,8.23,5.34,12.18.06.01.09.02.15.03-.49-4.41-.63-8.85-.63-13.76,0-3.83,0-5.74,0-9.57,2.72.48,4.08.71,6.8,1.16,0,10.91,0,21.82,0,32.73-3.11-.51-4.66-.78-7.77-1.33-2.8-5.55-4.2-8.33-6.99-13.91-1.94-3.86-4.08-8.5-5.68-12.64-.06,0-.09.01-.15.02.19,4.36.29,8.99.29,14.33,0,3.94,0,5.92,0,9.86-2.72-.53-4.08-.8-6.8-1.34Z"/>
        <path class="cls-2" d="M198.12,230.16c-3.52-.47-5.27-.73-8.79-1.27,0-2.49,0-3.73,0-6.22,10.06,1.56,15.09,2.23,25.16,3.04,0,2.49,0,3.73,0,6.22-3.57-.29-5.36-.46-8.94-.86,0,10.61,0,15.91,0,26.52-2.97-.33-4.46-.51-7.43-.91,0-10.61,0-15.91,0-26.51Z"/>
        <path class="cls-2" d="M237.89,245.39c-4.82.09-7.23.07-12.04-.11,0,3.11,0,4.66,0,7.77,5.38.19,8.07.22,13.45.07,0,2.43,0,3.64,0,6.07-8.35.22-12.53.1-20.88-.46,0-10.91,0-21.82,0-32.73,8.08.53,12.12.66,20.2.47,0,2.43,0,3.64,0,6.07-5.11.12-7.66.09-12.77-.09,0,2.72,0,4.08,0,6.8,4.82.17,7.23.2,12.04.11v6.02Z"/>
        <path class="cls-2" d="M244.35,226.7c2.38-.51,5.92-1.04,9.86-1.46,4.86-.52,8.27-.35,10.59,1.1,1.94,1.21,3.01,3.29,3.01,6.3,0,4.18-2.96,7.61-5.78,9.06v.15c2.28.57,3.54,2.53,4.37,5.38,1.01,3.5,2.04,7.58,2.67,8.72-3.03.61-4.55.87-7.58,1.33-.53-.84-1.38-3.44-2.28-7.3-.92-3.89-2.28-4.87-5.29-4.6-.89.09-1.34.14-2.23.22,0,5.15,0,7.72,0,12.87-2.93.27-4.4.38-7.33.53,0-10.76,0-21.53,0-32.29ZM251.68,240.25c1.17-.11,1.75-.17,2.91-.29,3.69-.4,5.88-2.59,5.88-5.46,0-3.01-2.06-4.22-5.44-3.87-1.79.19-2.82.44-3.35.59,0,3.61,0,5.42,0,9.03Z"/>
        <path class="cls-2" d="M271.05,251.55c5.33-8.79,10.54-17.67,15.59-26.62v-.19c-5.65,1.84-8.48,2.6-14.13,3.87,0-2.45,0-3.67,0-6.12,9.5-2.12,14.25-3.55,23.75-7.36,0,1.71,0,2.56,0,4.27-4.94,9.19-10.03,18.32-15.25,27.35v.19c6.2-1.76,9.29-2.81,15.49-5.31,0,2.45,0,3.67,0,6.12-10.18,4.11-15.27,5.6-25.45,7.78,0-1.59,0-2.39,0-3.98Z"/>
      </g>
    </g>
  </g>
</svg>