<?xml version="1.0" encoding="UTF-8"?>
<svg xmlns="http://www.w3.org/2000/svg" xmlns:xlink="http://www.w3.org/1999/xlink" viewBox="0 0 937.89 1395.09">
  <defs>
    <style>
      .cls-1, .cls-2, .cls-3, .cls-4, .cls-5, .cls-6, .cls-7, .cls-8, .cls-9, .cls-10, .cls-11, .cls-12, .cls-13, .cls-14, .cls-15, .cls-16, .cls-17, .cls-18, .cls-19, .cls-20, .cls-21, .cls-22, .cls-23, .cls-24, .cls-25, .cls-26, .cls-27, .cls-28, .cls-29, .cls-30, .cls-31, .cls-32, .cls-33, .cls-34, .cls-35, .cls-36, .cls-37, .cls-38, .cls-39, .cls-40, .cls-41, .cls-42, .cls-43, .cls-44, .cls-45, .cls-46, .cls-47, .cls-48, .cls-49, .cls-50, .cls-51, .cls-52, .cls-53, .cls-54 {
        fill: none;
      }

      .cls-55 {
        fill: #ceaa11;
      }

      .cls-55, .cls-56 {
        mix-blend-mode: overlay;
      }

      .cls-2 {
        stroke-width: 1.59px;
      }

      .cls-2, .cls-3, .cls-4, .cls-5, .cls-6, .cls-7, .cls-8, .cls-9, .cls-10, .cls-11, .cls-12, .cls-13, .cls-14, .cls-15, .cls-16, .cls-17, .cls-18, .cls-19, .cls-20, .cls-21, .cls-22, .cls-23, .cls-24, .cls-25, .cls-26, .cls-27, .cls-28, .cls-29, .cls-30, .cls-31, .cls-32, .cls-33, .cls-34, .cls-35, .cls-36, .cls-37, .cls-38, .cls-39, .cls-40, .cls-41, .cls-42, .cls-43, .cls-44, .cls-45, .cls-46, .cls-47, .cls-48, .cls-49, .cls-50, .cls-51, .cls-52, .cls-53, .cls-54 {
        stroke-miterlimit: 10;
      }

      .cls-2, .cls-27 {
        stroke: #b6edf6;
      }

      .cls-3 {
        stroke-width: 2.52px;
      }

      .cls-3, .cls-11 {
        stroke: #abe9f4;
      }

      .cls-4 {
        stroke-width: 1.89px;
      }

      .cls-4, .cls-47 {
        stroke: #bceff7;
      }

      .cls-57 {
        fill: #7f01da;
      }

      .cls-5 {
        stroke-width: .96px;
      }

      .cls-5, .cls-7 {
        stroke: #cdf4fa;
      }

      .cls-6 {
        stroke-width: 2.31px;
      }

      .cls-6, .cls-13 {
        stroke: #b1ebf5;
      }

      .cls-58 {
        fill: #26b6e0;
      }

      .cls-7 {
        stroke-width: 1.26px;
      }

      .cls-8 {
        stroke-width: 1.79px;
      }

      .cls-8, .cls-9 {
        stroke: #bff0f8;
      }

      .cls-9 {
        stroke-width: 1.35px;
      }

      .cls-10 {
        stroke-width: .88px;
      }

      .cls-10, .cls-12 {
        stroke: #d0f5fb;
      }

      .cls-11 {
        stroke-width: 1.91px;
      }

      .cls-12 {
        stroke-width: 1.16px;
      }

      .cls-13 {
        stroke-width: 1.75px;
      }

      .cls-14 {
        stroke-width: 2.21px;
      }

      .cls-14, .cls-44 {
        stroke: #b3ecf6;
      }

      .cls-15 {
        stroke-width: .95px;
      }

      .cls-15, .cls-16 {
        stroke: #d5f7fc;
      }

      .cls-16 {
        stroke-width: .72px;
      }

      .cls-17 {
        stroke-width: 1.83px;
      }

      .cls-17, .cls-24 {
        stroke: #aeeaf5;
      }

      .cls-18 {
        stroke: #7d02d8;
      }

      .cls-18, .cls-26, .cls-37 {
        stroke-width: 5px;
      }

      .cls-19 {
        stroke-width: 4.86px;
      }

      .cls-19, .cls-53 {
        stroke: #f7869d;
      }

      .cls-56 {
        fill: #f7931e;
      }

      .cls-59 {
        isolation: isolate;
      }

      .cls-20 {
        stroke-width: .32px;
      }

      .cls-20, .cls-21 {
        stroke: #e3fcfe;
      }

      .cls-21 {
        stroke-width: .42px;
      }

      .cls-22 {
        stroke-width: 1.47px;
      }

      .cls-22, .cls-23 {
        stroke: #c7f3f9;
      }

      .cls-23 {
        stroke-width: 1.12px;
      }

      .cls-24 {
        stroke-width: 2.42px;
      }

      .cls-25 {
        stroke-width: 1.05px;
      }

      .cls-25, .cls-28 {
        stroke: #d2f6fb;
      }

      .cls-26 {
        stroke: #f5da4a;
      }

      .cls-27 {
        stroke-width: 2.1px;
      }

      .cls-28 {
        stroke-width: .8px;
      }

      .cls-60 {
        fill: #fd859d;
      }

      .cls-29 {
        stroke-width: .4px;
      }

      .cls-29, .cls-30 {
        stroke: #e0fbfe;
      }

      .cls-30 {
        stroke-width: .53px;
      }

      .cls-31 {
        stroke-width: 2px;
      }

      .cls-31, .cls-42 {
        stroke: #b9eef7;
      }

      .cls-32 {
        stroke-width: .48px;
      }

      .cls-32, .cls-33 {
        stroke: #defafd;
      }

      .cls-33 {
        stroke-width: .63px;
      }

      .cls-34 {
        stroke: #7f01da;
      }

      .cls-34, .cls-35 {
        stroke-width: 6px;
      }

      .cls-35, .cls-36, .cls-37 {
        stroke: #26b6e0;
      }

      .cls-36 {
        stroke-width: 4.8px;
      }

      .cls-38 {
        stroke-width: 1.68px;
      }

      .cls-38, .cls-39 {
        stroke: #c1f1f8;
      }

      .cls-39 {
        stroke-width: 1.27px;
      }

      .cls-61 {
        fill: #f5da4a;
      }

      .cls-40 {
        stroke-width: .24px;
      }

      .cls-40, .cls-41 {
        stroke: #e6fdff;
      }

      .cls-41 {
        stroke-width: .32px;
      }

      .cls-42 {
        stroke-width: 1.51px;
      }

      .cls-43 {
        stroke-width: .84px;
      }

      .cls-43, .cls-46 {
        stroke: #d8f8fc;
      }

      .cls-44 {
        stroke-width: 1.67px;
      }

      .cls-45 {
        stroke-width: 1.37px;
      }

      .cls-45, .cls-49 {
        stroke: #caf3fa;
      }

      .cls-46 {
        stroke-width: .64px;
      }

      .cls-47 {
        stroke-width: 1.43px;
      }

      .cls-48 {
        stroke-width: .74px;
      }

      .cls-48, .cls-50 {
        stroke: #dbf9fd;
      }

      .cls-49 {
        stroke-width: 1.04px;
      }

      .cls-50 {
        stroke-width: .56px;
      }

      .cls-62 {
        clip-path: url(#clippath);
      }

      .cls-51 {
        stroke: #fd859d;
        stroke-width: 5.56px;
      }

      .cls-52 {
        stroke-width: 1.58px;
      }

      .cls-52, .cls-54 {
        stroke: #c4f2f9;
      }

      .cls-53 {
        stroke-width: 1.74px;
      }

      .cls-54 {
        stroke-width: 1.2px;
      }

      .cls-63 {
        fill: #f7869d;
      }
    </style>
    <clipPath id="clippath">
      <circle class="cls-1" cx="209.48" cy="953.7" r="76.74"/>
    </clipPath>
  </defs>
  <g class="cls-59">
    <g id="Layer_2" data-name="Layer 2">
      <g id="Layer_1-2" data-name="Layer 1">
        <g>
          <circle class="cls-11" cx="319.57" cy="921.12" r="27.57"/>
          <circle class="cls-17" cx="319.57" cy="921.12" r="33.39"/>
          <circle class="cls-13" cx="319.57" cy="921.12" r="39.22"/>
          <circle class="cls-44" cx="319.57" cy="921.12" r="45.05"/>
          <circle class="cls-2" cx="319.57" cy="921.12" r="50.88"/>
          <circle class="cls-42" cx="319.57" cy="921.12" r="56.7"/>
          <circle class="cls-47" cx="319.57" cy="921.12" r="62.53"/>
          <circle class="cls-9" cx="319.57" cy="921.12" r="68.36"/>
          <circle class="cls-39" cx="319.57" cy="921.12" r="74.19"/>
          <circle class="cls-54" cx="319.57" cy="921.12" r="80.01"/>
          <circle class="cls-23" cx="319.57" cy="921.12" r="85.84"/>
          <circle class="cls-49" cx="319.57" cy="921.12" r="91.67"/>
          <circle class="cls-5" cx="319.57" cy="921.12" r="97.49"/>
          <circle class="cls-10" cx="319.57" cy="921.12" r="103.32"/>
          <circle class="cls-28" cx="319.57" cy="921.12" r="109.15"/>
          <circle class="cls-16" cx="319.57" cy="921.12" r="114.98"/>
          <circle class="cls-46" cx="319.57" cy="921.12" r="120.8"/>
          <circle class="cls-50" cx="319.57" cy="921.12" r="126.63"/>
          <circle class="cls-32" cx="319.57" cy="921.12" r="132.46"/>
          <circle class="cls-29" cx="319.57" cy="921.12" r="138.29"/>
          <circle class="cls-20" cx="319.57" cy="921.12" r="144.11"/>
          <circle class="cls-40" cx="319.57" cy="921.12" r="149.94"/>
        </g>
        <g>
          <circle class="cls-3" cx="630.7" cy="443.6" r="36.35"/>
          <circle class="cls-24" cx="630.7" cy="443.6" r="44.03"/>
          <circle class="cls-6" cx="630.7" cy="443.6" r="51.71"/>
          <circle class="cls-14" cx="630.7" cy="443.6" r="59.4"/>
          <circle class="cls-27" cx="630.7" cy="443.6" r="67.08"/>
          <circle class="cls-31" cx="630.7" cy="443.6" r="74.76"/>
          <circle class="cls-4" cx="630.7" cy="443.6" r="82.45"/>
          <circle class="cls-8" cx="630.7" cy="443.6" r="90.13"/>
          <circle class="cls-38" cx="630.7" cy="443.6" r="97.81"/>
          <circle class="cls-52" cx="630.7" cy="443.6" r="105.5"/>
          <circle class="cls-22" cx="630.7" cy="443.6" r="113.18"/>
          <circle class="cls-45" cx="630.7" cy="443.6" r="120.87"/>
          <circle class="cls-7" cx="630.7" cy="443.6" r="128.55"/>
          <circle class="cls-12" cx="630.7" cy="443.6" r="136.23"/>
          <circle class="cls-25" cx="630.7" cy="443.6" r="143.92"/>
          <circle class="cls-15" cx="630.7" cy="443.6" r="151.6"/>
          <circle class="cls-43" cx="630.7" cy="443.6" r="159.28"/>
          <circle class="cls-48" cx="630.7" cy="443.6" r="166.97"/>
          <circle class="cls-33" cx="630.7" cy="443.6" r="174.65"/>
          <circle class="cls-30" cx="630.7" cy="443.6" r="182.33"/>
          <circle class="cls-21" cx="630.7" cy="443.6" r="190.02"/>
          <circle class="cls-41" cx="630.7" cy="443.6" r="197.7"/>
        </g>
        <g>
          <circle class="cls-3" cx="422.99" cy="1197.23" r="36.35"/>
          <circle class="cls-24" cx="422.99" cy="1197.23" r="44.03"/>
          <circle class="cls-6" cx="422.99" cy="1197.23" r="51.71"/>
          <circle class="cls-14" cx="422.99" cy="1197.23" r="59.4"/>
          <circle class="cls-27" cx="422.99" cy="1197.23" r="67.08"/>
          <circle class="cls-31" cx="422.99" cy="1197.23" r="74.76"/>
          <circle class="cls-4" cx="422.99" cy="1197.23" r="82.45"/>
          <circle class="cls-8" cx="422.99" cy="1197.23" r="90.13"/>
          <circle class="cls-38" cx="422.99" cy="1197.23" r="97.81"/>
          <circle class="cls-52" cx="422.99" cy="1197.23" r="105.5"/>
          <circle class="cls-22" cx="422.99" cy="1197.23" r="113.18"/>
          <circle class="cls-45" cx="422.99" cy="1197.23" r="120.87"/>
          <circle class="cls-7" cx="422.99" cy="1197.23" r="128.55"/>
          <circle class="cls-12" cx="422.99" cy="1197.23" r="136.23"/>
          <circle class="cls-25" cx="422.99" cy="1197.23" r="143.92"/>
          <circle class="cls-15" cx="422.99" cy="1197.23" r="151.6"/>
          <circle class="cls-43" cx="422.99" cy="1197.23" r="159.28"/>
          <circle class="cls-48" cx="422.99" cy="1197.23" r="166.97"/>
          <circle class="cls-33" cx="422.99" cy="1197.23" r="174.65"/>
          <circle class="cls-30" cx="422.99" cy="1197.23" r="182.33"/>
          <circle class="cls-21" cx="422.99" cy="1197.23" r="190.02"/>
          <circle class="cls-41" cx="422.99" cy="1197.23" r="197.7"/>
        </g>
        <g>
          <circle class="cls-11" cx="589.01" cy="771.18" r="27.57"/>
          <circle class="cls-17" cx="589.01" cy="771.18" r="33.39"/>
          <circle class="cls-13" cx="589.01" cy="771.18" r="39.22"/>
          <circle class="cls-44" cx="589.01" cy="771.18" r="45.05"/>
          <circle class="cls-2" cx="589.01" cy="771.18" r="50.88"/>
          <circle class="cls-42" cx="589.01" cy="771.18" r="56.7"/>
          <circle class="cls-47" cx="589.01" cy="771.18" r="62.53"/>
          <circle class="cls-9" cx="589.01" cy="771.18" r="68.36"/>
          <circle class="cls-39" cx="589.01" cy="771.18" r="74.19"/>
          <circle class="cls-54" cx="589.01" cy="771.18" r="80.01"/>
          <circle class="cls-23" cx="589.01" cy="771.18" r="85.84"/>
          <circle class="cls-49" cx="589.01" cy="771.18" r="91.67"/>
          <circle class="cls-5" cx="589.01" cy="771.18" r="97.49"/>
          <circle class="cls-10" cx="589.01" cy="771.18" r="103.32"/>
          <circle class="cls-28" cx="589.01" cy="771.18" r="109.15"/>
          <circle class="cls-16" cx="589.01" cy="771.18" r="114.98"/>
          <circle class="cls-46" cx="589.01" cy="771.18" r="120.8"/>
          <circle class="cls-50" cx="589.01" cy="771.18" r="126.63"/>
          <circle class="cls-32" cx="589.01" cy="771.18" r="132.46"/>
          <circle class="cls-29" cx="589.01" cy="771.18" r="138.29"/>
          <circle class="cls-20" cx="589.01" cy="771.18" r="144.11"/>
          <circle class="cls-40" cx="589.01" cy="771.18" r="149.94"/>
        </g>
        <polygon class="cls-58" points="810.98 1197.14 806.91 1041.31 655.15 1193.06 810.98 1197.14"/>
        <polygon class="cls-60" points="613.2 277.25 658.23 229.8 568.17 229.8 613.2 277.25"/>
        <polygon class="cls-58" points="682.99 360.25 728.02 312.8 637.95 312.8 682.99 360.25"/>
        <polygon class="cls-57" points="401.71 749.35 446.74 701.9 356.67 701.9 401.71 749.35"/>
        <polygon class="cls-19" points="775.93 1162.09 771.86 1006.26 620.1 1158.01 775.93 1162.09"/>
        <g>
          <circle class="cls-53" cx="683.35" cy="889.15" r="7.25"/>
          <circle class="cls-53" cx="630.7" cy="889.15" r="7.25"/>
          <circle class="cls-53" cx="578.05" cy="889.15" r="7.25"/>
          <circle class="cls-53" cx="525.4" cy="889.15" r="7.25"/>
          <circle class="cls-53" cx="683.35" cy="849.7" r="7.25"/>
          <circle class="cls-53" cx="630.7" cy="849.7" r="7.25"/>
          <circle class="cls-53" cx="578.05" cy="849.7" r="7.25"/>
          <circle class="cls-53" cx="525.4" cy="849.7" r="7.25"/>
          <circle class="cls-53" cx="683.35" cy="810.25" r="7.25"/>
          <circle class="cls-53" cx="630.7" cy="810.25" r="7.25"/>
          <circle class="cls-53" cx="578.05" cy="810.25" r="7.25"/>
          <circle class="cls-53" cx="525.4" cy="810.25" r="7.25"/>
          <circle class="cls-53" cx="683.35" cy="770.8" r="7.25"/>
          <circle class="cls-53" cx="630.7" cy="770.8" r="7.25"/>
          <circle class="cls-53" cx="578.05" cy="770.8" r="7.25"/>
          <circle class="cls-53" cx="525.4" cy="770.8" r="7.25"/>
        </g>
        <g>
          <circle class="cls-57" cx="794.53" cy="823.69" r="8.33"/>
          <circle class="cls-57" cx="794.53" cy="757.69" r="8.33"/>
          <circle class="cls-57" cx="794.53" cy="691.69" r="8.33"/>
          <circle class="cls-57" cx="794.53" cy="625.69" r="8.33"/>
          <circle class="cls-57" cx="794.53" cy="559.69" r="8.33"/>
        </g>
        <rect class="cls-57" x="580.46" y="422.4" width="113.37" height="221.91" transform="translate(1274.28 1066.71) rotate(-180)"/>
        <rect class="cls-61" x="678.94" y="44.43" width="214.52" height="214.52" transform="translate(1449.38 -296.98) rotate(135)"/>
        <g>
          <polygon class="cls-60" points="398.42 848.16 441.81 891.54 480.56 852.79 417.71 789.95 354.86 852.79 374.32 872.26 398.42 848.16"/>
          <polygon class="cls-61" points="374.32 872.26 335.57 911.01 398.42 973.86 461.27 911.01 441.81 891.54 417.71 915.64 374.32 872.26"/>
          <rect class="cls-60" x="391.02" y="851.22" width="34.08" height="61.35" transform="translate(-504.08 546.85) rotate(-45)"/>
          <rect class="cls-55" x="391.02" y="851.22" width="34.08" height="61.35" transform="translate(-504.08 546.85) rotate(-45)"/>
        </g>
        <circle class="cls-19" cx="525.4" cy="681.26" r="20.25"/>
        <circle class="cls-19" cx="49.33" cy="1092.91" r="20.25"/>
        <circle class="cls-18" cx="533.19" cy="1063.96" r="52.11"/>
        <circle class="cls-37" cx="505.15" cy="1022.67" r="52.11"/>
        <rect class="cls-61" x="637.95" y="955.98" width="55.87" height="55.87" transform="translate(1331.77 1967.83) rotate(-180)"/>
        <polyline class="cls-51" points="531.68 394.66 499.15 395.76 498.05 428.3 465.51 429.39 464.41 461.93 431.88 463.03 430.78 495.56 398.25 496.66 397.14 529.2 364.61 530.3 363.5 562.84 330.96 563.95"/>
        <polyline class="cls-26" points="233.1 772.47 200.57 773.57 199.47 806.11 166.93 807.2 165.83 839.74 133.3 840.84 132.2 873.37 99.67 874.47 98.56 907.01 66.03 908.11 64.92 940.65 32.38 941.76"/>
        <rect class="cls-36" x="744.2" y="443.6" width="144" height="465.08" transform="translate(1632.4 1352.29) rotate(-180)"/>
        <line class="cls-35" x1="525.4" y1="1231.69" x2="320.57" y2="1026.86"/>
        <line class="cls-35" x1="508.53" y1="1248.56" x2="303.7" y2="1043.73"/>
        <line class="cls-35" x1="491.66" y1="1265.43" x2="286.83" y2="1060.6"/>
        <line class="cls-35" x1="474.79" y1="1282.3" x2="269.97" y2="1077.47"/>
        <rect class="cls-60" x="147.2" y="1146.91" width="139.02" height="139.02" transform="translate(433.41 2432.84) rotate(-180)"/>
        <circle class="cls-34" cx="178.57" cy="1146.91" r="44.68"/>
        <g class="cls-62">
          <g>
            <circle class="cls-57" cx="400.27" cy="982.97" r="3.75"/>
            <circle class="cls-57" cx="387.86" cy="990.74" r="3.75"/>
            <circle class="cls-57" cx="375.44" cy="998.5" r="3.75"/>
            <circle class="cls-57" cx="363.03" cy="1006.27" r="3.75"/>
            <circle class="cls-57" cx="350.61" cy="1014.04" r="3.75"/>
            <circle class="cls-57" cx="338.2" cy="1021.8" r="3.75"/>
            <circle class="cls-57" cx="325.78" cy="1029.57" r="3.75"/>
            <circle class="cls-57" cx="313.37" cy="1037.34" r="3.75"/>
            <circle class="cls-57" cx="300.95" cy="1045.11" r="3.75"/>
            <circle class="cls-57" cx="288.54" cy="1052.87" r="3.75"/>
            <circle class="cls-57" cx="276.12" cy="1060.64" r="3.75"/>
            <circle class="cls-57" cx="263.7" cy="1068.41" r="3.75"/>
            <circle class="cls-57" cx="251.29" cy="1076.17" r="3.75"/>
            <circle class="cls-57" cx="238.87" cy="1083.94" r="3.75"/>
            <circle class="cls-57" cx="226.46" cy="1091.71" r="3.75"/>
            <circle class="cls-57" cx="214.04" cy="1099.47" r="3.75"/>
            <circle class="cls-57" cx="201.63" cy="1107.24" r="3.75"/>
            <circle class="cls-57" cx="189.21" cy="1115.01" r="3.75"/>
            <circle class="cls-57" cx="176.8" cy="1122.78" r="3.75"/>
            <circle class="cls-57" cx="164.38" cy="1130.54" r="3.75"/>
            <circle class="cls-57" cx="393.41" cy="972" r="3.75"/>
            <circle class="cls-57" cx="380.99" cy="979.76" r="3.75"/>
            <circle class="cls-57" cx="368.58" cy="987.53" r="3.75"/>
            <circle class="cls-57" cx="356.16" cy="995.3" r="3.75"/>
            <circle class="cls-57" cx="343.75" cy="1003.07" r="3.75"/>
            <circle class="cls-57" cx="331.33" cy="1010.83" r="3.75"/>
            <circle class="cls-57" cx="318.92" cy="1018.6" r="3.75"/>
            <circle class="cls-57" cx="306.5" cy="1026.37" r="3.75"/>
            <circle class="cls-57" cx="294.09" cy="1034.13" r="3.75"/>
            <circle class="cls-57" cx="281.67" cy="1041.9" r="3.75"/>
            <circle class="cls-57" cx="269.26" cy="1049.67" r="3.75"/>
            <circle class="cls-57" cx="256.84" cy="1057.43" r="3.75"/>
            <circle class="cls-57" cx="244.42" cy="1065.2" r="3.75"/>
            <circle class="cls-57" cx="232.01" cy="1072.97" r="3.75"/>
            <circle class="cls-57" cx="219.59" cy="1080.74" r="3.75"/>
            <circle class="cls-57" cx="207.18" cy="1088.5" r="3.75"/>
            <circle class="cls-57" cx="194.76" cy="1096.27" r="3.75"/>
            <circle class="cls-57" cx="182.35" cy="1104.04" r="3.75"/>
            <circle class="cls-57" cx="169.93" cy="1111.8" r="3.75"/>
            <circle class="cls-57" cx="157.52" cy="1119.57" r="3.75"/>
            <circle class="cls-57" cx="386.55" cy="961.03" r="3.75"/>
            <circle class="cls-57" cx="374.13" cy="968.79" r="3.75"/>
            <circle class="cls-57" cx="361.72" cy="976.56" r="3.75"/>
            <circle class="cls-57" cx="349.3" cy="984.33" r="3.75"/>
            <circle class="cls-57" cx="336.88" cy="992.09" r="3.75"/>
            <circle class="cls-57" cx="324.47" cy="999.86" r="3.75"/>
            <circle class="cls-57" cx="312.05" cy="1007.63" r="3.75"/>
            <circle class="cls-57" cx="299.64" cy="1015.39" r="3.75"/>
            <circle class="cls-57" cx="287.22" cy="1023.16" r="3.75"/>
            <circle class="cls-57" cx="274.81" cy="1030.93" r="3.75"/>
            <circle class="cls-57" cx="262.39" cy="1038.7" r="3.75"/>
            <circle class="cls-57" cx="249.98" cy="1046.46" r="3.75"/>
            <circle class="cls-57" cx="237.56" cy="1054.23" r="3.75"/>
            <circle class="cls-57" cx="225.15" cy="1062" r="3.75"/>
            <circle class="cls-57" cx="212.73" cy="1069.76" r="3.75"/>
            <circle class="cls-57" cx="200.31" cy="1077.53" r="3.75"/>
            <circle class="cls-57" cx="187.9" cy="1085.3" r="3.75"/>
            <circle class="cls-57" cx="175.48" cy="1093.07" r="3.75"/>
            <circle class="cls-57" cx="163.07" cy="1100.83" r="3.75"/>
            <circle class="cls-57" cx="150.65" cy="1108.6" r="3.75"/>
            <circle class="cls-57" cx="379.68" cy="950.05" r="3.75"/>
            <circle class="cls-57" cx="367.27" cy="957.82" r="3.75"/>
            <circle class="cls-57" cx="354.85" cy="965.59" r="3.75"/>
            <circle class="cls-57" cx="342.44" cy="973.35" r="3.75"/>
            <circle class="cls-57" cx="330.02" cy="981.12" r="3.75"/>
            <circle class="cls-57" cx="317.61" cy="988.89" r="3.75"/>
            <circle class="cls-57" cx="305.19" cy="996.66" r="3.75"/>
            <circle class="cls-57" cx="292.77" cy="1004.42" r="3.75"/>
            <circle class="cls-57" cx="280.36" cy="1012.19" r="3.75"/>
            <circle class="cls-57" cx="267.94" cy="1019.96" r="3.75"/>
            <circle class="cls-57" cx="255.53" cy="1027.72" r="3.75"/>
            <circle class="cls-57" cx="243.11" cy="1035.49" r="3.75"/>
            <circle class="cls-57" cx="230.7" cy="1043.26" r="3.75"/>
            <circle class="cls-57" cx="218.28" cy="1051.03" r="3.75"/>
            <circle class="cls-57" cx="205.87" cy="1058.79" r="3.75"/>
            <circle class="cls-57" cx="193.45" cy="1066.56" r="3.75"/>
            <circle class="cls-57" cx="181.04" cy="1074.33" r="3.75"/>
            <circle class="cls-57" cx="168.62" cy="1082.09" r="3.75"/>
            <circle class="cls-57" cx="156.2" cy="1089.86" r="3.75"/>
            <circle class="cls-57" cx="143.79" cy="1097.63" r="3.75"/>
            <circle class="cls-57" cx="372.82" cy="939.08" r="3.75"/>
            <circle class="cls-57" cx="360.4" cy="946.85" r="3.75"/>
            <circle class="cls-57" cx="347.99" cy="954.62" r="3.75"/>
            <circle class="cls-57" cx="335.57" cy="962.38" r="3.75"/>
            <circle class="cls-57" cx="323.16" cy="970.15" r="3.75"/>
            <circle class="cls-57" cx="310.74" cy="977.92" r="3.75"/>
            <circle class="cls-57" cx="298.33" cy="985.68" r="3.75"/>
            <circle class="cls-57" cx="285.91" cy="993.45" r="3.75"/>
            <circle class="cls-57" cx="273.49" cy="1001.22" r="3.75"/>
            <circle class="cls-57" cx="261.08" cy="1008.99" r="3.75"/>
            <circle class="cls-57" cx="248.66" cy="1016.75" r="3.75"/>
            <circle class="cls-57" cx="236.25" cy="1024.52" r="3.75"/>
            <circle class="cls-57" cx="223.83" cy="1032.29" r="3.75"/>
            <circle class="cls-57" cx="211.42" cy="1040.05" r="3.75"/>
            <circle class="cls-57" cx="199" cy="1047.82" r="3.75"/>
            <circle class="cls-57" cx="186.59" cy="1055.59" r="3.75"/>
            <circle class="cls-57" cx="174.17" cy="1063.35" r="3.75"/>
            <circle class="cls-57" cx="161.76" cy="1071.12" r="3.75"/>
            <circle class="cls-57" cx="149.34" cy="1078.89" r="3.75"/>
            <circle class="cls-57" cx="136.93" cy="1086.66" r="3.75"/>
            <circle class="cls-57" cx="365.95" cy="928.11" r="3.75"/>
            <circle class="cls-57" cx="353.54" cy="935.88" r="3.75"/>
            <circle class="cls-57" cx="341.12" cy="943.64" r="3.75"/>
            <circle class="cls-57" cx="328.71" cy="951.41" r="3.75"/>
            <circle class="cls-57" cx="316.29" cy="959.18" r="3.75"/>
            <circle class="cls-57" cx="303.88" cy="966.95" r="3.75"/>
            <circle class="cls-57" cx="291.46" cy="974.71" r="3.75"/>
            <circle class="cls-57" cx="279.05" cy="982.48" r="3.75"/>
            <circle class="cls-57" cx="266.63" cy="990.25" r="3.75"/>
            <circle class="cls-57" cx="254.22" cy="998.01" r="3.75"/>
            <circle class="cls-57" cx="241.8" cy="1005.78" r="3.75"/>
            <circle class="cls-57" cx="229.38" cy="1013.55" r="3.75"/>
            <circle class="cls-57" cx="216.97" cy="1021.31" r="3.75"/>
            <circle class="cls-57" cx="204.55" cy="1029.08" r="3.75"/>
            <circle class="cls-57" cx="192.14" cy="1036.85" r="3.75"/>
            <circle class="cls-57" cx="179.72" cy="1044.62" r="3.75"/>
            <circle class="cls-57" cx="167.31" cy="1052.38" r="3.75"/>
            <circle class="cls-57" cx="154.89" cy="1060.15" r="3.75"/>
            <circle class="cls-57" cx="142.48" cy="1067.92" r="3.75"/>
            <circle class="cls-57" cx="130.06" cy="1075.68" r="3.75"/>
            <circle class="cls-57" cx="359.09" cy="917.14" r="3.75"/>
            <circle class="cls-57" cx="346.68" cy="924.91" r="3.75"/>
            <circle class="cls-57" cx="334.26" cy="932.67" r="3.75"/>
            <circle class="cls-57" cx="321.84" cy="940.44" r="3.75"/>
            <circle class="cls-57" cx="309.43" cy="948.21" r="3.75"/>
            <circle class="cls-57" cx="297.01" cy="955.97" r="3.75"/>
            <circle class="cls-57" cx="284.6" cy="963.74" r="3.75"/>
            <circle class="cls-57" cx="272.18" cy="971.51" r="3.75"/>
            <circle class="cls-57" cx="259.77" cy="979.27" r="3.75"/>
            <circle class="cls-57" cx="247.35" cy="987.04" r="3.75"/>
            <circle class="cls-57" cx="234.94" cy="994.81" r="3.75"/>
            <circle class="cls-57" cx="222.52" cy="1002.58" r="3.75"/>
            <circle class="cls-57" cx="210.11" cy="1010.34" r="3.75"/>
            <circle class="cls-57" cx="197.69" cy="1018.11" r="3.75"/>
            <circle class="cls-57" cx="185.27" cy="1025.88" r="3.75"/>
            <circle class="cls-57" cx="172.86" cy="1033.64" r="3.75"/>
            <circle class="cls-57" cx="160.44" cy="1041.41" r="3.75"/>
            <circle class="cls-57" cx="148.03" cy="1049.18" r="3.75"/>
            <circle class="cls-57" cx="135.61" cy="1056.95" r="3.75"/>
            <circle class="cls-57" cx="123.2" cy="1064.71" r="3.75"/>
            <circle class="cls-57" cx="352.23" cy="906.17" r="3.75"/>
            <circle class="cls-57" cx="339.81" cy="913.93" r="3.75"/>
            <circle class="cls-57" cx="327.4" cy="921.7" r="3.75"/>
            <circle class="cls-57" cx="314.98" cy="929.47" r="3.75"/>
            <circle class="cls-57" cx="302.57" cy="937.23" r="3.75"/>
            <circle class="cls-57" cx="290.15" cy="945" r="3.75"/>
            <circle class="cls-57" cx="277.73" cy="952.77" r="3.75"/>
            <circle class="cls-57" cx="265.32" cy="960.54" r="3.75"/>
            <circle class="cls-57" cx="252.9" cy="968.3" r="3.75"/>
            <circle class="cls-57" cx="240.49" cy="976.07" r="3.75"/>
            <circle class="cls-57" cx="228.07" cy="983.84" r="3.75"/>
            <circle class="cls-57" cx="215.66" cy="991.6" r="3.75"/>
            <circle class="cls-57" cx="203.24" cy="999.37" r="3.75"/>
            <circle class="cls-57" cx="190.83" cy="1007.14" r="3.75"/>
            <circle class="cls-57" cx="178.41" cy="1014.91" r="3.75"/>
            <circle class="cls-57" cx="166" cy="1022.67" r="3.75"/>
            <circle class="cls-57" cx="153.58" cy="1030.44" r="3.75"/>
            <circle class="cls-57" cx="141.16" cy="1038.21" r="3.75"/>
            <circle class="cls-57" cx="128.75" cy="1045.97" r="3.75"/>
            <circle class="cls-57" cx="116.33" cy="1053.74" r="3.75"/>
            <circle class="cls-57" cx="345.36" cy="895.19" r="3.75"/>
            <circle class="cls-57" cx="332.95" cy="902.96" r="3.75"/>
            <circle class="cls-57" cx="320.53" cy="910.73" r="3.75"/>
            <circle class="cls-57" cx="308.12" cy="918.5" r="3.75"/>
            <circle class="cls-57" cx="295.7" cy="926.26" r="3.75"/>
            <circle class="cls-57" cx="283.29" cy="934.03" r="3.75"/>
            <circle class="cls-57" cx="270.87" cy="941.8" r="3.75"/>
            <circle class="cls-57" cx="258.45" cy="949.56" r="3.75"/>
            <circle class="cls-57" cx="246.04" cy="957.33" r="3.75"/>
            <circle class="cls-57" cx="233.62" cy="965.1" r="3.75"/>
            <circle class="cls-57" cx="221.21" cy="972.87" r="3.75"/>
            <circle class="cls-57" cx="208.79" cy="980.63" r="3.75"/>
            <circle class="cls-57" cx="196.38" cy="988.4" r="3.75"/>
            <circle class="cls-57" cx="183.96" cy="996.17" r="3.75"/>
            <circle class="cls-57" cx="171.55" cy="1003.93" r="3.75"/>
            <circle class="cls-57" cx="159.13" cy="1011.7" r="3.75"/>
            <circle class="cls-57" cx="146.72" cy="1019.47" r="3.75"/>
            <circle class="cls-57" cx="134.3" cy="1027.23" r="3.75"/>
            <circle class="cls-57" cx="121.88" cy="1035" r="3.75"/>
            <circle class="cls-57" cx="109.47" cy="1042.77" r="3.75"/>
            <circle class="cls-57" cx="338.5" cy="884.22" r="3.75"/>
            <circle class="cls-57" cx="326.08" cy="891.99" r="3.75"/>
            <circle class="cls-57" cx="313.67" cy="899.76" r="3.75"/>
            <circle class="cls-57" cx="301.25" cy="907.52" r="3.75"/>
            <circle class="cls-57" cx="288.84" cy="915.29" r="3.75"/>
            <circle class="cls-57" cx="276.42" cy="923.06" r="3.75"/>
            <circle class="cls-57" cx="264.01" cy="930.83" r="3.75"/>
            <circle class="cls-57" cx="251.59" cy="938.59" r="3.75"/>
            <circle class="cls-57" cx="239.18" cy="946.36" r="3.75"/>
            <circle class="cls-57" cx="226.76" cy="954.13" r="3.75"/>
            <circle class="cls-57" cx="214.34" cy="961.89" r="3.75"/>
            <circle class="cls-57" cx="201.93" cy="969.66" r="3.75"/>
            <circle class="cls-57" cx="189.51" cy="977.43" r="3.75"/>
            <circle class="cls-57" cx="177.1" cy="985.19" r="3.75"/>
            <circle class="cls-57" cx="164.68" cy="992.96" r="3.75"/>
            <circle class="cls-57" cx="152.27" cy="1000.73" r="3.75"/>
            <circle class="cls-57" cx="139.85" cy="1008.5" r="3.75"/>
            <circle class="cls-57" cx="127.44" cy="1016.26" r="3.75"/>
            <circle class="cls-57" cx="115.02" cy="1024.03" r="3.75"/>
            <circle class="cls-57" cx="102.61" cy="1031.8" r="3.75"/>
            <circle class="cls-57" cx="331.64" cy="873.25" r="3.75"/>
            <circle class="cls-57" cx="319.22" cy="881.02" r="3.75"/>
            <circle class="cls-57" cx="306.8" cy="888.79" r="3.75"/>
            <circle class="cls-57" cx="294.39" cy="896.55" r="3.75"/>
            <circle class="cls-57" cx="281.97" cy="904.32" r="3.75"/>
            <circle class="cls-57" cx="269.56" cy="912.09" r="3.75"/>
            <circle class="cls-57" cx="257.14" cy="919.85" r="3.75"/>
            <circle class="cls-57" cx="244.73" cy="927.62" r="3.75"/>
            <circle class="cls-57" cx="232.31" cy="935.39" r="3.75"/>
            <circle class="cls-57" cx="219.9" cy="943.15" r="3.75"/>
            <circle class="cls-57" cx="207.48" cy="950.92" r="3.75"/>
            <circle class="cls-57" cx="195.07" cy="958.69" r="3.75"/>
            <circle class="cls-57" cx="182.65" cy="966.46" r="3.75"/>
            <circle class="cls-57" cx="170.23" cy="974.22" r="3.75"/>
            <circle class="cls-57" cx="157.82" cy="981.99" r="3.75"/>
            <circle class="cls-57" cx="145.4" cy="989.76" r="3.75"/>
            <circle class="cls-57" cx="132.99" cy="997.52" r="3.75"/>
            <circle class="cls-57" cx="120.57" cy="1005.29" r="3.75"/>
            <circle class="cls-57" cx="108.16" cy="1013.06" r="3.75"/>
            <circle class="cls-57" cx="95.74" cy="1020.83" r="3.75"/>
            <circle class="cls-57" cx="324.77" cy="862.28" r="3.75"/>
            <circle class="cls-57" cx="312.36" cy="870.05" r="3.75"/>
            <circle class="cls-57" cx="299.94" cy="877.81" r="3.75"/>
            <circle class="cls-57" cx="287.52" cy="885.58" r="3.75"/>
            <circle class="cls-57" cx="275.11" cy="893.35" r="3.75"/>
            <circle class="cls-57" cx="262.69" cy="901.11" r="3.75"/>
            <circle class="cls-57" cx="250.28" cy="908.88" r="3.75"/>
            <circle class="cls-57" cx="237.86" cy="916.65" r="3.75"/>
            <circle class="cls-57" cx="225.45" cy="924.42" r="3.75"/>
            <circle class="cls-57" cx="213.03" cy="932.18" r="3.75"/>
            <circle class="cls-57" cx="200.62" cy="939.95" r="3.75"/>
            <circle class="cls-57" cx="188.2" cy="947.72" r="3.75"/>
            <circle class="cls-57" cx="175.79" cy="955.48" r="3.75"/>
            <circle class="cls-57" cx="163.37" cy="963.25" r="3.75"/>
            <circle class="cls-57" cx="150.96" cy="971.02" r="3.75"/>
            <circle class="cls-57" cx="138.54" cy="978.79" r="3.75"/>
            <circle class="cls-57" cx="126.12" cy="986.55" r="3.75"/>
            <circle class="cls-57" cx="113.71" cy="994.32" r="3.75"/>
            <circle class="cls-57" cx="101.29" cy="1002.09" r="3.75"/>
            <circle class="cls-57" cx="88.88" cy="1009.85" r="3.75"/>
            <circle class="cls-57" cx="317.91" cy="851.31" r="3.75"/>
            <circle class="cls-57" cx="305.49" cy="859.07" r="3.75"/>
            <circle class="cls-57" cx="293.08" cy="866.84" r="3.75"/>
            <circle class="cls-57" cx="280.66" cy="874.61" r="3.75"/>
            <circle class="cls-57" cx="268.25" cy="882.38" r="3.75"/>
            <circle class="cls-57" cx="255.83" cy="890.14" r="3.75"/>
            <circle class="cls-57" cx="243.41" cy="897.91" r="3.75"/>
            <circle class="cls-57" cx="231" cy="905.68" r="3.75"/>
            <circle class="cls-57" cx="218.58" cy="913.44" r="3.75"/>
            <circle class="cls-57" cx="206.17" cy="921.21" r="3.75"/>
            <circle class="cls-57" cx="193.75" cy="928.98" r="3.75"/>
            <circle class="cls-57" cx="181.34" cy="936.75" r="3.75"/>
            <circle class="cls-57" cx="168.92" cy="944.51" r="3.75"/>
            <circle class="cls-57" cx="156.51" cy="952.28" r="3.75"/>
            <circle class="cls-57" cx="144.09" cy="960.05" r="3.75"/>
            <circle class="cls-57" cx="131.68" cy="967.81" r="3.75"/>
            <circle class="cls-57" cx="119.26" cy="975.58" r="3.75"/>
            <circle class="cls-57" cx="106.84" cy="983.35" r="3.75"/>
            <circle class="cls-57" cx="94.43" cy="991.11" r="3.75"/>
            <circle class="cls-57" cx="82.01" cy="998.88" r="3.75"/>
            <circle class="cls-57" cx="311.04" cy="840.34" r="3.75"/>
            <circle class="cls-57" cx="298.63" cy="848.1" r="3.75"/>
            <circle class="cls-57" cx="286.21" cy="855.87" r="3.75"/>
            <circle class="cls-57" cx="273.8" cy="863.64" r="3.75"/>
            <circle class="cls-57" cx="261.38" cy="871.4" r="3.75"/>
            <circle class="cls-57" cx="248.97" cy="879.17" r="3.75"/>
            <circle class="cls-57" cx="236.55" cy="886.94" r="3.75"/>
            <circle class="cls-57" cx="224.14" cy="894.71" r="3.75"/>
            <circle class="cls-57" cx="211.72" cy="902.47" r="3.75"/>
            <circle class="cls-57" cx="199.3" cy="910.24" r="3.75"/>
            <circle class="cls-57" cx="186.89" cy="918.01" r="3.75"/>
            <circle class="cls-57" cx="174.47" cy="925.77" r="3.75"/>
            <circle class="cls-57" cx="162.06" cy="933.54" r="3.75"/>
            <circle class="cls-57" cx="149.64" cy="941.31" r="3.75"/>
            <circle class="cls-57" cx="137.23" cy="949.07" r="3.75"/>
            <circle class="cls-57" cx="124.81" cy="956.84" r="3.75"/>
            <circle class="cls-57" cx="112.4" cy="964.61" r="3.75"/>
            <circle class="cls-57" cx="99.98" cy="972.38" r="3.75"/>
            <circle class="cls-57" cx="87.57" cy="980.14" r="3.75"/>
            <circle class="cls-57" cx="75.15" cy="987.91" r="3.75"/>
            <circle class="cls-57" cx="304.18" cy="829.36" r="3.75"/>
            <circle class="cls-57" cx="291.76" cy="837.13" r="3.75"/>
            <circle class="cls-57" cx="279.35" cy="844.9" r="3.75"/>
            <circle class="cls-57" cx="266.93" cy="852.67" r="3.75"/>
            <circle class="cls-57" cx="254.52" cy="860.43" r="3.75"/>
            <circle class="cls-57" cx="242.1" cy="868.2" r="3.75"/>
            <circle class="cls-57" cx="229.69" cy="875.97" r="3.75"/>
            <circle class="cls-57" cx="217.27" cy="883.73" r="3.75"/>
            <circle class="cls-57" cx="204.86" cy="891.5" r="3.75"/>
            <circle class="cls-57" cx="192.44" cy="899.27" r="3.75"/>
            <circle class="cls-57" cx="180.03" cy="907.03" r="3.75"/>
            <circle class="cls-57" cx="167.61" cy="914.8" r="3.75"/>
            <circle class="cls-57" cx="155.19" cy="922.57" r="3.75"/>
            <circle class="cls-57" cx="142.78" cy="930.34" r="3.75"/>
            <circle class="cls-57" cx="130.36" cy="938.1" r="3.75"/>
            <circle class="cls-57" cx="117.95" cy="945.87" r="3.75"/>
            <circle class="cls-57" cx="105.53" cy="953.64" r="3.75"/>
            <circle class="cls-57" cx="93.12" cy="961.4" r="3.75"/>
            <circle class="cls-57" cx="80.7" cy="969.17" r="3.75"/>
            <circle class="cls-57" cx="68.29" cy="976.94" r="3.75"/>
            <circle class="cls-57" cx="297.32" cy="818.39" r="3.75"/>
            <circle class="cls-57" cx="284.9" cy="826.16" r="3.75"/>
            <circle class="cls-57" cx="272.48" cy="833.93" r="3.75"/>
            <circle class="cls-57" cx="260.07" cy="841.69" r="3.75"/>
            <circle class="cls-57" cx="247.65" cy="849.46" r="3.75"/>
            <circle class="cls-57" cx="235.24" cy="857.23" r="3.75"/>
            <circle class="cls-57" cx="222.82" cy="864.99" r="3.75"/>
            <circle class="cls-57" cx="210.41" cy="872.76" r="3.75"/>
            <circle class="cls-57" cx="197.99" cy="880.53" r="3.75"/>
            <circle class="cls-57" cx="185.58" cy="888.3" r="3.75"/>
            <circle class="cls-57" cx="173.16" cy="896.06" r="3.75"/>
            <circle class="cls-57" cx="160.75" cy="903.83" r="3.75"/>
            <circle class="cls-57" cx="148.33" cy="911.6" r="3.75"/>
            <circle class="cls-57" cx="135.91" cy="919.36" r="3.75"/>
            <circle class="cls-57" cx="123.5" cy="927.13" r="3.75"/>
            <circle class="cls-57" cx="111.08" cy="934.9" r="3.75"/>
            <circle class="cls-57" cx="98.67" cy="942.67" r="3.75"/>
            <circle class="cls-57" cx="86.25" cy="950.43" r="3.75"/>
            <circle class="cls-57" cx="73.84" cy="958.2" r="3.75"/>
            <circle class="cls-57" cx="61.42" cy="965.97" r="3.75"/>
            <circle class="cls-57" cx="290.45" cy="807.42" r="3.75"/>
            <circle class="cls-57" cx="278.04" cy="815.19" r="3.75"/>
            <circle class="cls-57" cx="265.62" cy="822.95" r="3.75"/>
            <circle class="cls-57" cx="253.21" cy="830.72" r="3.75"/>
            <circle class="cls-57" cx="240.79" cy="838.49" r="3.75"/>
            <circle class="cls-57" cx="228.37" cy="846.26" r="3.75"/>
            <circle class="cls-57" cx="215.96" cy="854.02" r="3.75"/>
            <circle class="cls-57" cx="203.54" cy="861.79" r="3.75"/>
            <circle class="cls-57" cx="191.13" cy="869.56" r="3.75"/>
            <circle class="cls-57" cx="178.71" cy="877.32" r="3.75"/>
            <circle class="cls-57" cx="166.3" cy="885.09" r="3.75"/>
            <circle class="cls-57" cx="153.88" cy="892.86" r="3.75"/>
            <circle class="cls-57" cx="141.47" cy="900.63" r="3.75"/>
            <circle class="cls-57" cx="129.05" cy="908.39" r="3.75"/>
            <circle class="cls-57" cx="116.64" cy="916.16" r="3.75"/>
            <circle class="cls-57" cx="104.22" cy="923.93" r="3.75"/>
            <circle class="cls-57" cx="91.8" cy="931.69" r="3.75"/>
            <circle class="cls-57" cx="79.39" cy="939.46" r="3.75"/>
            <circle class="cls-57" cx="66.97" cy="947.23" r="3.75"/>
            <circle class="cls-57" cx="54.56" cy="954.99" r="3.75"/>
            <circle class="cls-57" cx="283.59" cy="796.45" r="3.75"/>
            <circle class="cls-57" cx="271.17" cy="804.22" r="3.75"/>
            <circle class="cls-57" cx="258.76" cy="811.98" r="3.75"/>
            <circle class="cls-57" cx="246.34" cy="819.75" r="3.75"/>
            <circle class="cls-57" cx="233.93" cy="827.52" r="3.75"/>
            <circle class="cls-57" cx="221.51" cy="835.28" r="3.75"/>
            <circle class="cls-57" cx="209.1" cy="843.05" r="3.75"/>
            <circle class="cls-57" cx="196.68" cy="850.82" r="3.75"/>
            <circle class="cls-57" cx="184.26" cy="858.59" r="3.75"/>
            <circle class="cls-57" cx="171.85" cy="866.35" r="3.75"/>
            <circle class="cls-57" cx="159.43" cy="874.12" r="3.75"/>
            <circle class="cls-57" cx="147.02" cy="881.89" r="3.75"/>
            <circle class="cls-57" cx="134.6" cy="889.65" r="3.75"/>
            <circle class="cls-57" cx="122.19" cy="897.42" r="3.75"/>
            <circle class="cls-57" cx="109.77" cy="905.19" r="3.75"/>
            <circle class="cls-57" cx="97.36" cy="912.95" r="3.75"/>
            <circle class="cls-57" cx="84.94" cy="920.72" r="3.75"/>
            <circle class="cls-57" cx="72.53" cy="928.49" r="3.75"/>
            <circle class="cls-57" cx="60.11" cy="936.26" r="3.75"/>
            <circle class="cls-57" cx="47.69" cy="944.02" r="3.75"/>
            <circle class="cls-57" cx="276.72" cy="785.48" r="3.75"/>
            <circle class="cls-57" cx="264.31" cy="793.24" r="3.75"/>
            <circle class="cls-57" cx="251.89" cy="801.01" r="3.75"/>
            <circle class="cls-57" cx="239.48" cy="808.78" r="3.75"/>
            <circle class="cls-57" cx="227.06" cy="816.55" r="3.75"/>
            <circle class="cls-57" cx="214.65" cy="824.31" r="3.75"/>
            <circle class="cls-57" cx="202.23" cy="832.08" r="3.75"/>
            <circle class="cls-57" cx="189.82" cy="839.85" r="3.75"/>
            <circle class="cls-57" cx="177.4" cy="847.61" r="3.75"/>
            <circle class="cls-57" cx="164.99" cy="855.38" r="3.75"/>
            <circle class="cls-57" cx="152.57" cy="863.15" r="3.75"/>
            <circle class="cls-57" cx="140.15" cy="870.91" r="3.75"/>
            <circle class="cls-57" cx="127.74" cy="878.68" r="3.75"/>
            <circle class="cls-57" cx="115.32" cy="886.45" r="3.75"/>
            <circle class="cls-57" cx="102.91" cy="894.22" r="3.75"/>
            <circle class="cls-57" cx="90.49" cy="901.98" r="3.75"/>
            <circle class="cls-57" cx="78.08" cy="909.75" r="3.75"/>
            <circle class="cls-57" cx="65.66" cy="917.52" r="3.75"/>
            <circle class="cls-57" cx="53.25" cy="925.28" r="3.75"/>
            <circle class="cls-57" cx="40.83" cy="933.05" r="3.75"/>
            <circle class="cls-57" cx="269.86" cy="774.51" r="3.75"/>
            <circle class="cls-57" cx="257.44" cy="782.27" r="3.75"/>
            <circle class="cls-57" cx="245.03" cy="790.04" r="3.75"/>
            <circle class="cls-57" cx="232.61" cy="797.81" r="3.75"/>
            <circle class="cls-57" cx="220.2" cy="805.57" r="3.75"/>
            <circle class="cls-57" cx="207.78" cy="813.34" r="3.75"/>
            <circle class="cls-57" cx="195.37" cy="821.11" r="3.75"/>
            <circle class="cls-57" cx="182.95" cy="828.87" r="3.75"/>
            <circle class="cls-57" cx="170.54" cy="836.64" r="3.75"/>
            <circle class="cls-57" cx="158.12" cy="844.41" r="3.75"/>
            <circle class="cls-57" cx="145.71" cy="852.18" r="3.75"/>
            <circle class="cls-57" cx="133.29" cy="859.94" r="3.75"/>
            <circle class="cls-57" cx="120.87" cy="867.71" r="3.75"/>
            <circle class="cls-57" cx="108.46" cy="875.48" r="3.75"/>
            <circle class="cls-57" cx="96.04" cy="883.24" r="3.75"/>
            <circle class="cls-57" cx="83.63" cy="891.01" r="3.75"/>
            <circle class="cls-57" cx="71.21" cy="898.78" r="3.75"/>
            <circle class="cls-57" cx="58.8" cy="906.54" r="3.75"/>
            <circle class="cls-57" cx="46.38" cy="914.31" r="3.75"/>
            <circle class="cls-57" cx="33.97" cy="922.08" r="3.75"/>
          </g>
        </g>
        <path class="cls-63" d="M303.33,759.29h7.54v7.54c0,2.4,1.95,4.35,4.35,4.35s4.35-1.95,4.35-4.35v-7.54h7.54c2.4,0,4.35-1.95,4.35-4.35s-1.95-4.35-4.35-4.35h-7.54v-7.54c0-2.4-1.95-4.35-4.35-4.35s-4.35,1.95-4.35,4.35v7.54h-7.54c-2.4,0-4.35,1.95-4.35,4.35s1.95,4.35,4.35,4.35Z"/>
        <path class="cls-57" d="M403.18,638.38h7.54v7.54c0,2.4,1.95,4.35,4.35,4.35s4.35-1.95,4.35-4.35v-7.54h7.54c2.4,0,4.35-1.95,4.35-4.35s-1.95-4.35-4.35-4.35h-7.54v-7.54c0-2.4-1.95-4.35-4.35-4.35s-4.35,1.95-4.35,4.35v7.54h-7.54c-2.4,0-4.35,1.95-4.35,4.35s1.95,4.35,4.35,4.35Z"/>
        <path class="cls-57" d="M62.85,1003.89h7.54v7.54c0,2.4,1.95,4.35,4.35,4.35s4.35-1.95,4.35-4.35v-7.54h7.54c2.4,0,4.35-1.95,4.35-4.35s-1.95-4.35-4.35-4.35h-7.54v-7.54c0-2.4-1.95-4.35-4.35-4.35s-4.35,1.95-4.35,4.35v7.54h-7.54c-2.4,0-4.35,1.95-4.35,4.35s1.95,4.35,4.35,4.35Z"/>
        <path class="cls-61" d="M4.35,1167.37h7.54v7.54c0,2.4,1.95,4.35,4.35,4.35,2.4,0,4.35-1.95,4.35-4.35v-7.54h7.54c2.4,0,4.35-1.95,4.35-4.35s-1.95-4.35-4.35-4.35h-7.54v-7.54c0-2.4-1.95-4.35-4.35-4.35-2.4,0-4.35,1.95-4.35,4.35v7.54h-7.54c-2.4,0-4.35,1.95-4.35,4.35s1.95,4.35,4.35,4.35Z"/>
        <path class="cls-56" d="M575.48,487.47c-3.12.13-6.19.25-9.18.31v-.07s-19.91.39-19.91.39l.31,15.41s10.48-.41,10.48-.22c0,0,0,0,0,0,5.85-.12,7.82,3.24,8.43,6.16l1.31,64.94c-.22,1.84-1.24,4.8-5.33,4.89,0,0,0,0,0,0,0,.16-10.49.2-10.49.2l-2.52,17.29,18.78-.38c3.49-.07,6.93-.08,10.31-.12l.29,14.32.2,9.65,14.41-.29-.12-5.87-.36-17.85c3.96,0,7.79-.04,11.53-.12l.41,20.8.06,2.81,4.71-.1,9.72-.2-.48-23.93c24.23-1.88,41.09-8.33,42.74-31.16.09-1.23.13-2.41.13-3.55,0-15.88-8.52-23.04-21.43-25.87,7.32-3.91,12.14-10.32,12.14-20.37,0-1.32-.08-2.7-.25-4.15-1.99-17.06-16.86-22.49-35.52-23.75l-.48-23.71-3.47.07-10.96.22.08,3.87.39,19.21c-3.79.08-7.67.23-11.52.38l-.34-16.75-.13-6.48-12.71.26-1.71.03.47,23.7ZM632.22,562.09c0,.11,0,.21,0,.32,0,13.4-17.64,15.77-30.35,16.23-3.97.14-7.47.1-9.78.15l-.64-31.77c2.14-.04,5.27-.24,8.87-.33,12.85-.31,31.61.79,31.9,15.39ZM603.28,503.39c9.92.33,21.1,2.8,21.33,14.01,0,.1,0,.2,0,.3,0,11.66-13.5,14.08-23.94,14.6-3.87.19-7.32.13-9.51.17l-.58-28.81c2.78-.06,7.57-.45,12.7-.28Z"/>
        <g>
          <rect class="cls-57" x="116.32" y="432.91" width="13.33" height="42"/>
          <rect class="cls-57" x="116.32" y="432.91" width="13.33" height="42" transform="translate(576.89 330.92) rotate(90)"/>
        </g>
      </g>
    </g>
  </g>
</svg>