<?xml version="1.0" encoding="UTF-8"?>
<svg id="Layer_2" data-name="Layer 2" xmlns="http://www.w3.org/2000/svg" viewBox="0 0 296.5 56.83">
  <defs>
    <style>
      .cls-1 {
        fill: #2b1b54;
      }
    </style>
  </defs>
  <g id="Layer_1-2" data-name="Layer 1">
    <g>
      <path class="cls-1" d="M1.51,36.56c1.99.24,5.05.13,8.21-.9,3.4-1.11,5.2-3.01,5.2-5.14s-1.57-2.83-5.49-2.92c-5.41-.13-8.98-1.63-8.98-6.39C.44,15.61,5.1,9.33,12.82,6.99c3.69-1.12,6.41-1.03,8.35-.63-.66,2.55-.99,3.83-1.65,6.38-1.31-.3-3.64-.62-6.85.36-3.21.98-4.76,2.99-4.76,4.69,0,2.09,1.86,2.35,6.07,2.69,5.75.46,8.5,2.9,8.5,7.52,0,5.49-4.22,10.9-13.21,13.86-3.74,1.23-7.43,1.68-9.28,1.41.6-2.69.9-4.03,1.51-6.72Z"/>
      <path class="cls-1" d="M35.11,26.85c-.93,3.5-1.4,5.26-2.33,8.77-3.07.51-4.6.8-7.67,1.46,3.31-11.53,6.64-23.05,10-34.56,3.89-.59,5.83-.82,9.71-1.18,3.4,10.69,6.78,21.38,10.15,32.07-3.19.12-4.78.21-7.96.47-1.01-3.28-1.52-4.92-2.52-8.18-3.75.36-5.62.58-9.37,1.15ZM43.41,20.27c-.82-2.7-1.22-4.04-2.04-6.73-.58-1.88-1.17-4.24-1.65-6.12-.04,0-.06,0-.1.01-.49,2-.97,4.54-1.5,6.51-.78,2.88-1.17,4.32-1.94,7.21,2.89-.42,4.34-.59,7.24-.88Z"/>
      <path class="cls-1" d="M61.62,6.75c-3.52.02-5.27.06-8.79.23V.77c10.06-.49,15.09-.38,25.16.28v6.22c-3.57-.24-5.36-.32-8.94-.43v26.52c-2.97-.09-4.46-.11-7.43-.09,0-10.61,0-15.91,0-26.52Z"/>
      <path class="cls-1" d="M99.16,3.23c0,5.03,0,7.55,0,12.58,4.88.66,7.31,1.03,12.19,1.83V5.06c2.95.48,4.43.74,7.38,1.26,0,10.91,0,21.82,0,32.73-2.95-.52-4.43-.78-7.38-1.26v-13.7c-4.88-.8-7.31-1.17-12.19-1.83v13.7c-2.97-.4-4.46-.59-7.43-.93V2.3c2.97.34,4.46.53,7.43.93Z"/>
      <path class="cls-1" d="M132.57,8.92c0,7.54,0,11.31,0,18.84,0,5.63,2.14,8.91,5.92,9.67,3.89.77,6.02-1.51,6.02-7.29,0-7.54,0-11.31,0-18.84,2.95.59,4.43.89,7.38,1.49,0,7.34,0,11.01,0,18.36,0,10.1-5.1,13.87-13.65,12.16-8.26-1.64-13.11-7.11-13.11-17.55,0-7.3,0-10.96,0-18.26,2.97.56,4.46.84,7.43,1.42Z"/>
      <path class="cls-1" d="M158.3,46.8c0-10.91,0-21.82,0-32.73,3.46.69,5.19,1.03,8.64,1.69,2.72,5.32,4.08,7.98,6.8,13.27,1.94,3.8,3.89,8.23,5.34,12.18.06.01.09.02.15.03-.49-4.41-.63-8.85-.63-13.76,0-3.83,0-5.74,0-9.57,2.72.48,4.08.71,6.8,1.16,0,10.91,0,21.82,0,32.73-3.11-.51-4.66-.78-7.77-1.33-2.8-5.55-4.2-8.33-6.99-13.91-1.94-3.86-4.08-8.5-5.68-12.64-.06,0-.09.01-.15.02.19,4.36.29,8.99.29,14.33,0,3.94,0,5.92,0,9.86-2.72-.53-4.08-.8-6.8-1.34Z"/>
      <path class="cls-1" d="M198.12,27.19c-3.52-.47-5.27-.73-8.79-1.27,0-2.49,0-3.73,0-6.22,10.06,1.56,15.09,2.23,25.16,3.04,0,2.49,0,3.73,0,6.22-3.57-.29-5.36-.46-8.94-.86,0,10.61,0,15.91,0,26.52-2.97-.33-4.46-.51-7.43-.91,0-10.61,0-15.91,0-26.51Z"/>
      <path class="cls-1" d="M237.89,42.41c-4.82.09-7.23.07-12.04-.11,0,3.11,0,4.66,0,7.77,5.38.19,8.07.22,13.45.07,0,2.43,0,3.64,0,6.07-8.35.22-12.53.1-20.88-.46,0-10.91,0-21.82,0-32.73,8.08.53,12.12.66,20.2.47,0,2.43,0,3.64,0,6.07-5.11.12-7.66.09-12.77-.09,0,2.72,0,4.08,0,6.8,4.82.17,7.23.2,12.04.11v6.02Z"/>
      <path class="cls-1" d="M244.35,23.73c2.38-.51,5.92-1.04,9.86-1.46,4.86-.52,8.27-.35,10.59,1.1,1.94,1.21,3.01,3.29,3.01,6.3,0,4.18-2.96,7.61-5.78,9.06v.15c2.28.57,3.54,2.53,4.37,5.38,1.01,3.5,2.04,7.58,2.67,8.72-3.03.61-4.55.87-7.58,1.33-.53-.84-1.38-3.44-2.28-7.3-.92-3.89-2.28-4.87-5.29-4.6-.89.09-1.34.14-2.23.22,0,5.15,0,7.72,0,12.87-2.93.27-4.4.38-7.33.53,0-10.76,0-21.53,0-32.29ZM251.68,37.28c1.17-.11,1.75-.17,2.91-.29,3.69-.4,5.88-2.59,5.88-5.46,0-3.01-2.06-4.22-5.44-3.87-1.79.19-2.82.44-3.35.59,0,3.61,0,5.42,0,9.03Z"/>
      <path class="cls-1" d="M271.05,48.57c5.33-8.79,10.54-17.67,15.59-26.62v-.19c-5.65,1.84-8.48,2.6-14.13,3.87,0-2.45,0-3.67,0-6.12,9.5-2.12,14.25-3.55,23.75-7.36,0,1.71,0,2.56,0,4.27-4.94,9.19-10.03,18.32-15.25,27.35v.19c6.2-1.76,9.29-2.81,15.49-5.31,0,2.45,0,3.67,0,6.12-10.18,4.11-15.27,5.6-25.45,7.78v-3.98Z"/>
    </g>
  </g>
</svg>