<?xml version="1.0" encoding="UTF-8"?>
<svg id="Layer_2" data-name="Layer 2" xmlns="http://www.w3.org/2000/svg" xmlns:xlink="http://www.w3.org/1999/xlink" viewBox="0 0 301.56 323.11">
  <defs>
    <style>
      .cls-1, .cls-2 {
        fill: none;
      }

      .cls-3 {
        fill: #7f01da;
      }

      .cls-4 {
        fill: #2b1b54;
      }

      .cls-2 {
        stroke: #f7869d;
        stroke-miterlimit: 10;
        stroke-width: 4.86px;
      }

      .cls-5 {
        fill: #15f9ff;
      }

      .cls-6 {
        fill: #fd859d;
      }

      .cls-7 {
        fill: #f5da4a;
      }

      .cls-8 {
        fill: #f7931a;
      }

      .cls-9 {
        clip-path: url(#clippath);
      }
    </style>
    <clipPath id="clippath">
      <circle class="cls-1" cx="78.02" cy="76.74" r="76.74"/>
    </clipPath>
  </defs>
  <g id="Layer_1-2" data-name="Layer 1">
    <circle class="cls-2" cx="47.12" cy="269.95" r="44.68"/>
    <g class="cls-9">
      <g>
        <circle class="cls-3" cx="268.82" cy="106" r="3.75"/>
        <circle class="cls-3" cx="256.41" cy="113.77" r="3.75"/>
        <circle class="cls-3" cx="243.99" cy="121.54" r="3.75"/>
        <circle class="cls-3" cx="231.57" cy="129.3" r="3.75"/>
        <circle class="cls-3" cx="219.16" cy="137.07" r="3.75"/>
        <circle class="cls-3" cx="206.74" cy="144.84" r="3.75"/>
        <circle class="cls-3" cx="194.33" cy="152.61" r="3.75"/>
        <circle class="cls-3" cx="181.91" cy="160.37" r="3.75"/>
        <circle class="cls-3" cx="169.5" cy="168.14" r="3.75"/>
        <circle class="cls-3" cx="157.08" cy="175.91" r="3.75"/>
        <circle class="cls-3" cx="144.67" cy="183.67" r="3.75"/>
        <circle class="cls-3" cx="132.25" cy="191.44" r="3.75"/>
        <circle class="cls-3" cx="119.84" cy="199.21" r="3.75"/>
        <circle class="cls-3" cx="107.42" cy="206.98" r="3.75"/>
        <circle class="cls-3" cx="95" cy="214.74" r="3.75"/>
        <circle class="cls-3" cx="82.59" cy="222.51" r="3.75"/>
        <circle class="cls-3" cx="70.17" cy="230.28" r="3.75"/>
        <circle class="cls-3" cx="57.76" cy="238.04" r="3.75"/>
        <circle class="cls-3" cx="45.34" cy="245.81" r="3.75"/>
        <circle class="cls-3" cx="32.93" cy="253.58" r="3.75"/>
        <circle class="cls-3" cx="261.96" cy="95.03" r="3.75"/>
        <circle class="cls-3" cx="249.54" cy="102.8" r="3.75"/>
        <circle class="cls-3" cx="237.13" cy="110.57" r="3.75"/>
        <circle class="cls-3" cx="224.71" cy="118.33" r="3.75"/>
        <circle class="cls-3" cx="212.3" cy="126.1" r="3.75"/>
        <circle class="cls-3" cx="199.88" cy="133.87" r="3.75"/>
        <circle class="cls-3" cx="187.46" cy="141.63" r="3.75"/>
        <circle class="cls-3" cx="175.05" cy="149.4" r="3.75"/>
        <circle class="cls-3" cx="162.63" cy="157.17" r="3.75"/>
        <circle class="cls-3" cx="150.22" cy="164.94" r="3.75"/>
        <circle class="cls-3" cx="137.8" cy="172.7" r="3.75"/>
        <circle class="cls-3" cx="125.39" cy="180.47" r="3.75"/>
        <circle class="cls-3" cx="112.97" cy="188.24" r="3.75"/>
        <circle class="cls-3" cx="100.56" cy="196" r="3.75"/>
        <circle class="cls-3" cx="88.14" cy="203.77" r="3.75"/>
        <circle class="cls-3" cx="75.73" cy="211.54" r="3.75"/>
        <circle class="cls-3" cx="63.31" cy="219.3" r="3.75"/>
        <circle class="cls-3" cx="50.89" cy="227.07" r="3.75"/>
        <circle class="cls-3" cx="38.48" cy="234.84" r="3.75"/>
        <circle class="cls-3" cx="26.06" cy="242.61" r="3.75"/>
        <circle class="cls-3" cx="255.09" cy="84.06" r="3.75"/>
        <circle class="cls-3" cx="242.68" cy="91.83" r="3.75"/>
        <circle class="cls-3" cx="230.26" cy="99.59" r="3.75"/>
        <circle class="cls-3" cx="217.85" cy="107.36" r="3.75"/>
        <circle class="cls-3" cx="205.43" cy="115.13" r="3.75"/>
        <circle class="cls-3" cx="193.02" cy="122.9" r="3.75"/>
        <circle class="cls-3" cx="180.6" cy="130.66" r="3.75"/>
        <circle class="cls-3" cx="168.18" cy="138.43" r="3.75"/>
        <circle class="cls-3" cx="155.77" cy="146.2" r="3.75"/>
        <circle class="cls-3" cx="143.35" cy="153.96" r="3.75"/>
        <circle class="cls-3" cx="130.94" cy="161.73" r="3.75"/>
        <circle class="cls-3" cx="118.52" cy="169.5" r="3.75"/>
        <circle class="cls-3" cx="106.11" cy="177.26" r="3.75"/>
        <circle class="cls-3" cx="93.69" cy="185.03" r="3.75"/>
        <circle class="cls-3" cx="81.28" cy="192.8" r="3.75"/>
        <circle class="cls-3" cx="68.86" cy="200.57" r="3.75"/>
        <circle class="cls-3" cx="56.45" cy="208.33" r="3.75"/>
        <circle class="cls-3" cx="44.03" cy="216.1" r="3.75"/>
        <circle class="cls-3" cx="31.61" cy="223.87" r="3.75"/>
        <circle class="cls-3" cx="19.2" cy="231.63" r="3.75"/>
        <circle class="cls-3" cx="248.23" cy="73.09" r="3.75"/>
        <circle class="cls-3" cx="235.81" cy="80.86" r="3.75"/>
        <circle class="cls-3" cx="223.4" cy="88.62" r="3.75"/>
        <circle class="cls-3" cx="210.98" cy="96.39" r="3.75"/>
        <circle class="cls-3" cx="198.57" cy="104.16" r="3.75"/>
        <circle class="cls-3" cx="186.15" cy="111.92" r="3.75"/>
        <circle class="cls-3" cx="173.74" cy="119.69" r="3.75"/>
        <circle class="cls-3" cx="161.32" cy="127.46" r="3.75"/>
        <circle class="cls-3" cx="148.91" cy="135.22" r="3.75"/>
        <circle class="cls-3" cx="136.49" cy="142.99" r="3.75"/>
        <circle class="cls-3" cx="124.07" cy="150.76" r="3.75"/>
        <circle class="cls-3" cx="111.66" cy="158.53" r="3.75"/>
        <circle class="cls-3" cx="99.24" cy="166.29" r="3.75"/>
        <circle class="cls-3" cx="86.83" cy="174.06" r="3.75"/>
        <circle class="cls-3" cx="74.41" cy="181.83" r="3.75"/>
        <circle class="cls-3" cx="62" cy="189.59" r="3.75"/>
        <circle class="cls-3" cx="49.58" cy="197.36" r="3.75"/>
        <circle class="cls-3" cx="37.17" cy="205.13" r="3.75"/>
        <circle class="cls-3" cx="24.75" cy="212.89" r="3.75"/>
        <circle class="cls-3" cx="12.34" cy="220.66" r="3.75"/>
        <circle class="cls-3" cx="241.37" cy="62.12" r="3.75"/>
        <circle class="cls-3" cx="228.95" cy="69.88" r="3.75"/>
        <circle class="cls-3" cx="216.53" cy="77.65" r="3.75"/>
        <circle class="cls-3" cx="204.12" cy="85.42" r="3.75"/>
        <circle class="cls-3" cx="191.7" cy="93.18" r="3.75"/>
        <circle class="cls-3" cx="179.29" cy="100.95" r="3.75"/>
        <circle class="cls-3" cx="166.87" cy="108.72" r="3.75"/>
        <circle class="cls-3" cx="154.46" cy="116.49" r="3.75"/>
        <circle class="cls-3" cx="142.04" cy="124.25" r="3.75"/>
        <circle class="cls-3" cx="129.63" cy="132.02" r="3.75"/>
        <circle class="cls-3" cx="117.21" cy="139.79" r="3.75"/>
        <circle class="cls-3" cx="104.8" cy="147.55" r="3.75"/>
        <circle class="cls-3" cx="92.38" cy="155.32" r="3.75"/>
        <circle class="cls-3" cx="79.96" cy="163.09" r="3.75"/>
        <circle class="cls-3" cx="67.55" cy="170.85" r="3.75"/>
        <circle class="cls-3" cx="55.13" cy="178.62" r="3.75"/>
        <circle class="cls-3" cx="42.72" cy="186.39" r="3.75"/>
        <circle class="cls-3" cx="30.3" cy="194.16" r="3.75"/>
        <circle class="cls-3" cx="17.89" cy="201.92" r="3.75"/>
        <circle class="cls-3" cx="5.47" cy="209.69" r="3.75"/>
        <circle class="cls-3" cx="234.5" cy="51.14" r="3.75"/>
        <circle class="cls-3" cx="222.09" cy="58.91" r="3.75"/>
        <circle class="cls-3" cx="209.67" cy="66.68" r="3.75"/>
        <circle class="cls-3" cx="197.25" cy="74.45" r="3.75"/>
        <circle class="cls-3" cx="184.84" cy="82.21" r="3.75"/>
        <circle class="cls-3" cx="172.42" cy="89.98" r="3.75"/>
        <circle class="cls-3" cx="160.01" cy="97.75" r="3.75"/>
        <circle class="cls-3" cx="147.59" cy="105.51" r="3.75"/>
        <circle class="cls-3" cx="135.18" cy="113.28" r="3.75"/>
        <circle class="cls-3" cx="122.76" cy="121.05" r="3.75"/>
        <circle class="cls-3" cx="110.35" cy="128.82" r="3.75"/>
        <circle class="cls-3" cx="97.93" cy="136.58" r="3.75"/>
        <circle class="cls-3" cx="85.52" cy="144.35" r="3.75"/>
        <circle class="cls-3" cx="73.1" cy="152.12" r="3.75"/>
        <circle class="cls-3" cx="60.69" cy="159.88" r="3.75"/>
        <circle class="cls-3" cx="48.27" cy="167.65" r="3.75"/>
        <circle class="cls-3" cx="35.85" cy="175.42" r="3.75"/>
        <circle class="cls-3" cx="23.44" cy="183.18" r="3.75"/>
        <circle class="cls-3" cx="11.02" cy="190.95" r="3.75"/>
        <circle class="cls-3" cx="-1.39" cy="198.72" r="3.75"/>
        <circle class="cls-3" cx="227.64" cy="40.17" r="3.75"/>
        <circle class="cls-3" cx="215.22" cy="47.94" r="3.75"/>
        <circle class="cls-3" cx="202.81" cy="55.71" r="3.75"/>
        <circle class="cls-3" cx="190.39" cy="63.47" r="3.75"/>
        <circle class="cls-3" cx="177.98" cy="71.24" r="3.75"/>
        <circle class="cls-3" cx="165.56" cy="79.01" r="3.75"/>
        <circle class="cls-3" cx="153.14" cy="86.78" r="3.75"/>
        <circle class="cls-3" cx="140.73" cy="94.54" r="3.75"/>
        <circle class="cls-3" cx="128.31" cy="102.31" r="3.75"/>
        <circle class="cls-3" cx="115.9" cy="110.08" r="3.75"/>
        <circle class="cls-3" cx="103.48" cy="117.84" r="3.75"/>
        <circle class="cls-3" cx="91.07" cy="125.61" r="3.75"/>
        <circle class="cls-3" cx="78.65" cy="133.38" r="3.75"/>
        <circle class="cls-3" cx="66.24" cy="141.14" r="3.75"/>
        <circle class="cls-3" cx="53.82" cy="148.91" r="3.75"/>
        <circle class="cls-3" cx="41.41" cy="156.68" r="3.75"/>
        <circle class="cls-3" cx="28.99" cy="164.45" r="3.75"/>
        <circle class="cls-3" cx="16.57" cy="172.21" r="3.75"/>
        <circle class="cls-3" cx="4.16" cy="179.98" r="3.75"/>
        <circle class="cls-3" cx="220.77" cy="29.2" r="3.75"/>
        <circle class="cls-3" cx="208.36" cy="36.97" r="3.75"/>
        <circle class="cls-3" cx="195.94" cy="44.74" r="3.75"/>
        <circle class="cls-3" cx="183.53" cy="52.5" r="3.75"/>
        <circle class="cls-3" cx="171.11" cy="60.27" r="3.75"/>
        <circle class="cls-3" cx="158.7" cy="68.04" r="3.75"/>
        <circle class="cls-3" cx="146.28" cy="75.8" r="3.75"/>
        <circle class="cls-3" cx="133.87" cy="83.57" r="3.75"/>
        <circle class="cls-3" cx="121.45" cy="91.34" r="3.75"/>
        <circle class="cls-3" cx="109.03" cy="99.1" r="3.75"/>
        <circle class="cls-3" cx="96.62" cy="106.87" r="3.75"/>
        <circle class="cls-3" cx="84.2" cy="114.64" r="3.75"/>
        <circle class="cls-3" cx="71.79" cy="122.41" r="3.75"/>
        <circle class="cls-3" cx="59.37" cy="130.17" r="3.75"/>
        <circle class="cls-3" cx="46.96" cy="137.94" r="3.75"/>
        <circle class="cls-3" cx="34.54" cy="145.71" r="3.75"/>
        <circle class="cls-3" cx="22.13" cy="153.47" r="3.75"/>
        <circle class="cls-3" cx="9.71" cy="161.24" r="3.75"/>
        <circle class="cls-3" cx="-2.7" cy="169.01" r="3.75"/>
        <circle class="cls-3" cx="213.91" cy="18.23" r="3.75"/>
        <circle class="cls-3" cx="201.49" cy="26" r="3.75"/>
        <circle class="cls-3" cx="189.08" cy="33.76" r="3.75"/>
        <circle class="cls-3" cx="176.66" cy="41.53" r="3.75"/>
        <circle class="cls-3" cx="164.25" cy="49.3" r="3.75"/>
        <circle class="cls-3" cx="151.83" cy="57.06" r="3.75"/>
        <circle class="cls-3" cx="139.42" cy="64.83" r="3.75"/>
        <circle class="cls-3" cx="127" cy="72.6" r="3.75"/>
        <circle class="cls-3" cx="114.59" cy="80.37" r="3.75"/>
        <circle class="cls-3" cx="102.17" cy="88.13" r="3.75"/>
        <circle class="cls-3" cx="89.76" cy="95.9" r="3.75"/>
        <circle class="cls-3" cx="77.34" cy="103.67" r="3.75"/>
        <circle class="cls-3" cx="64.92" cy="111.43" r="3.75"/>
        <circle class="cls-3" cx="52.51" cy="119.2" r="3.75"/>
        <circle class="cls-3" cx="40.09" cy="126.97" r="3.75"/>
        <circle class="cls-3" cx="27.68" cy="134.73" r="3.75"/>
        <circle class="cls-3" cx="15.26" cy="142.5" r="3.75"/>
        <circle class="cls-3" cx="2.85" cy="150.27" r="3.75"/>
        <circle class="cls-3" cx="207.05" cy="7.26" r="3.75"/>
        <circle class="cls-3" cx="194.63" cy="15.02" r="3.75"/>
        <circle class="cls-3" cx="182.21" cy="22.79" r="3.75"/>
        <circle class="cls-3" cx="169.8" cy="30.56" r="3.75"/>
        <circle class="cls-3" cx="157.38" cy="38.33" r="3.75"/>
        <circle class="cls-3" cx="144.97" cy="46.09" r="3.75"/>
        <circle class="cls-3" cx="132.55" cy="53.86" r="3.75"/>
        <circle class="cls-3" cx="120.14" cy="61.63" r="3.75"/>
        <circle class="cls-3" cx="107.72" cy="69.39" r="3.75"/>
        <circle class="cls-3" cx="95.31" cy="77.16" r="3.75"/>
        <circle class="cls-3" cx="82.89" cy="84.93" r="3.75"/>
        <circle class="cls-3" cx="70.48" cy="92.69" r="3.75"/>
        <circle class="cls-3" cx="58.06" cy="100.46" r="3.75"/>
        <circle class="cls-3" cx="45.64" cy="108.23" r="3.75"/>
        <circle class="cls-3" cx="33.23" cy="116" r="3.75"/>
        <circle class="cls-3" cx="20.81" cy="123.76" r="3.75"/>
        <circle class="cls-3" cx="8.4" cy="131.53" r="3.75"/>
        <circle class="cls-3" cx="200.18" cy="-3.71" r="3.75"/>
        <circle class="cls-3" cx="187.77" cy="4.05" r="3.75"/>
        <circle class="cls-3" cx="175.35" cy="11.82" r="3.75"/>
        <circle class="cls-3" cx="162.94" cy="19.59" r="3.75"/>
        <circle class="cls-3" cx="150.52" cy="27.35" r="3.75"/>
        <circle class="cls-3" cx="138.1" cy="35.12" r="3.75"/>
        <circle class="cls-3" cx="125.69" cy="42.89" r="3.75"/>
        <circle class="cls-3" cx="113.27" cy="50.65" r="3.75"/>
        <circle class="cls-3" cx="100.86" cy="58.42" r="3.75"/>
        <circle class="cls-3" cx="88.44" cy="66.19" r="3.75"/>
        <circle class="cls-3" cx="76.03" cy="73.96" r="3.75"/>
        <circle class="cls-3" cx="63.61" cy="81.72" r="3.75"/>
        <circle class="cls-3" cx="51.2" cy="89.49" r="3.75"/>
        <circle class="cls-3" cx="38.78" cy="97.26" r="3.75"/>
        <circle class="cls-3" cx="26.37" cy="105.02" r="3.75"/>
        <circle class="cls-3" cx="13.95" cy="112.79" r="3.75"/>
        <circle class="cls-3" cx="1.53" cy="120.56" r="3.75"/>
        <circle class="cls-3" cx="168.49" cy=".85" r="3.75"/>
        <circle class="cls-3" cx="156.07" cy="8.62" r="3.75"/>
        <circle class="cls-3" cx="143.66" cy="16.38" r="3.75"/>
        <circle class="cls-3" cx="131.24" cy="24.15" r="3.75"/>
        <circle class="cls-3" cx="118.83" cy="31.92" r="3.75"/>
        <circle class="cls-3" cx="106.41" cy="39.68" r="3.75"/>
        <circle class="cls-3" cx="93.99" cy="47.45" r="3.75"/>
        <circle class="cls-3" cx="81.58" cy="55.22" r="3.75"/>
        <circle class="cls-3" cx="69.16" cy="62.98" r="3.75"/>
        <circle class="cls-3" cx="56.75" cy="70.75" r="3.75"/>
        <circle class="cls-3" cx="44.33" cy="78.52" r="3.75"/>
        <circle class="cls-3" cx="31.92" cy="86.29" r="3.75"/>
        <circle class="cls-3" cx="19.5" cy="94.05" r="3.75"/>
        <circle class="cls-3" cx="7.09" cy="101.82" r="3.75"/>
        <circle class="cls-3" cx="149.21" cy="-2.36" r="3.75"/>
        <circle class="cls-3" cx="136.79" cy="5.41" r="3.75"/>
        <circle class="cls-3" cx="124.38" cy="13.18" r="3.75"/>
        <circle class="cls-3" cx="111.96" cy="20.94" r="3.75"/>
        <circle class="cls-3" cx="99.55" cy="28.71" r="3.75"/>
        <circle class="cls-3" cx="87.13" cy="36.48" r="3.75"/>
        <circle class="cls-3" cx="74.72" cy="44.25" r="3.75"/>
        <circle class="cls-3" cx="62.3" cy="52.01" r="3.75"/>
        <circle class="cls-3" cx="49.88" cy="59.78" r="3.75"/>
        <circle class="cls-3" cx="37.47" cy="67.55" r="3.75"/>
        <circle class="cls-3" cx="25.05" cy="75.31" r="3.75"/>
        <circle class="cls-3" cx="12.64" cy="83.08" r="3.75"/>
        <circle class="cls-3" cx=".22" cy="90.85" r="3.75"/>
        <circle class="cls-3" cx="117.51" cy="2.21" r="3.75"/>
        <circle class="cls-3" cx="105.1" cy="9.97" r="3.75"/>
        <circle class="cls-3" cx="92.68" cy="17.74" r="3.75"/>
        <circle class="cls-3" cx="80.27" cy="25.51" r="3.75"/>
        <circle class="cls-3" cx="67.85" cy="33.27" r="3.75"/>
        <circle class="cls-3" cx="55.44" cy="41.04" r="3.75"/>
        <circle class="cls-3" cx="43.02" cy="48.81" r="3.75"/>
        <circle class="cls-3" cx="30.6" cy="56.57" r="3.75"/>
        <circle class="cls-3" cx="18.19" cy="64.34" r="3.75"/>
        <circle class="cls-3" cx="5.77" cy="72.11" r="3.75"/>
        <circle class="cls-3" cx="98.23" cy="-1" r="3.75"/>
        <circle class="cls-3" cx="85.82" cy="6.77" r="3.75"/>
        <circle class="cls-3" cx="73.4" cy="14.53" r="3.75"/>
        <circle class="cls-3" cx="60.99" cy="22.3" r="3.75"/>
        <circle class="cls-3" cx="48.57" cy="30.07" r="3.75"/>
        <circle class="cls-3" cx="36.16" cy="37.84" r="3.75"/>
        <circle class="cls-3" cx="23.74" cy="45.6" r="3.75"/>
        <circle class="cls-3" cx="11.33" cy="53.37" r="3.75"/>
        <circle class="cls-3" cx="-1.09" cy="61.14" r="3.75"/>
        <circle class="cls-3" cx="66.54" cy="3.56" r="3.75"/>
        <circle class="cls-3" cx="54.12" cy="11.33" r="3.75"/>
        <circle class="cls-3" cx="41.71" cy="19.1" r="3.75"/>
        <circle class="cls-3" cx="29.29" cy="26.86" r="3.75"/>
        <circle class="cls-3" cx="16.88" cy="34.63" r="3.75"/>
        <circle class="cls-3" cx="4.46" cy="42.4" r="3.75"/>
        <circle class="cls-3" cx="47.26" cy=".36" r="3.75"/>
        <circle class="cls-3" cx="34.84" cy="8.13" r="3.75"/>
        <circle class="cls-3" cx="22.43" cy="15.89" r="3.75"/>
        <circle class="cls-3" cx="10.01" cy="23.66" r="3.75"/>
        <circle class="cls-3" cx="-2.4" cy="31.43" r="3.75"/>
        <circle class="cls-3" cx="27.98" cy="-2.85" r="3.75"/>
        <circle class="cls-3" cx="15.56" cy="4.92" r="3.75"/>
        <circle class="cls-3" cx="3.15" cy="12.69" r="3.75"/>
        <circle class="cls-3" cx="-3.71" cy="1.72" r="3.75"/>
      </g>
    </g>
    <path class="cls-3" d="M35.23,274.3h7.54v7.54c0,2.4,1.95,4.35,4.35,4.35s4.35-1.95,4.35-4.35v-7.54h7.54c2.4,0,4.35-1.95,4.35-4.35s-1.95-4.35-4.35-4.35h-7.54v-7.54c0-2.4-1.95-4.35-4.35-4.35s-4.35,1.95-4.35,4.35v7.54h-7.54c-2.4,0-4.35,1.95-4.35,4.35s1.95,4.35,4.35,4.35Z"/>
    <path class="cls-5" d="M273.42,236.55h7.54v7.54c0,2.4,1.95,4.35,4.35,4.35,2.4,0,4.35-1.95,4.35-4.35v-7.54h7.54c2.4,0,4.35-1.95,4.35-4.35s-1.95-4.35-4.35-4.35h-7.54v-7.54c0-2.4-1.95-4.35-4.35-4.35-2.4,0-4.35,1.95-4.35,4.35v7.54h-7.54c-2.4,0-4.35,1.95-4.35,4.35s1.95,4.35,4.35,4.35Z"/>
    <g>
      <g>
        <path class="cls-1" d="M68.39,192.31c1.21,1.03,1.94.26,2.16-.63.35-1.38,1.07-4.3,1.79-6-9.12,2.32-4.3,6.33-3.96,6.63Z"/>
        <path class="cls-1" d="M247.06,185.36c.73,1.69,1.46,4.61,1.81,5.99.23.89.96,1.66,2.17.62.35-.3,5.15-4.33-3.98-6.61Z"/>
        <g>
          <path class="cls-1" d="M68.39,192.31c1.21,1.03,1.94.26,2.16-.63.35-1.38,1.07-4.3,1.79-6-9.12,2.32-4.3,6.33-3.96,6.63Z"/>
          <path class="cls-1" d="M247.06,185.36c.73,1.69,1.46,4.61,1.81,5.99.23.89.96,1.66,2.17.62.35-.3,5.15-4.33-3.98-6.61Z"/>
          <path class="cls-4" d="M264.09,161.57c-4.11-7.99-15.25-25.35-20.97-33.5-5.72-8.15-6.51-11.27-6.51-11.27-4.68,8.94,10.92,34.07,18.31,49.66,1.46,3.08,2.05,4.86,2.42,7.37-3.94-1.28-10.05-1.86-16.16-2.6-3.75-8.62-8.4-18.46-15.93-30.49-17.83-28.48-33.03-23.53-33.03-23.53,17.91,12.6,32.62,46,32.62,46,0,0,1.36,2.44,3.35,6.91-3.38-.67-6.64-1.52-9.6-2.65-15.66-6.01-17.36-17.74-17.36-17.74-4.31,16.72,15.82,28.19,31.86,32.81.54,1.56,1.11,3.19,1.64,4.92,5.01,16.15-15.27,24.51-15.27,24.51-.81-9.8-7.74-15.32-18.04-20.99-10.16-5.6-13.05-11.38-13.05-11.38-2.83,9.01,11.38,22.25,15.2,26.13,4.14,4.21,4.74,10.04,3.11,12.94-2.23,3.95-12.14,8.53-13.87,8.9-.98.21-2.24-.06-2.29-2.68-.15-7.7-2.97-10.35-5.16-13.69-2.1-3.2-8.18-9.5-8.18-9.5.09,5.03,1.61,7.96,2.79,13.33,1.18,5.36,1.69,9.39-.06,12.49-2.97,5.26-20.11,5.74-20.11,5.74,0,0-17.14-.41-20.14-5.66-1.77-3.1-1.27-7.13-.11-12.49,1.16-5.37,2.67-8.31,2.74-13.34,0,0-6.06,6.32-8.15,9.53-2.18,3.35-4.99,6.01-5.11,13.71-.04,2.62-1.3,2.89-2.28,2.69-1.73-.36-11.66-4.9-13.9-8.85-1.64-2.89-1.06-8.72,3.06-12.95,3.81-3.9,17.97-17.2,15.1-26.19,0,0-2.86,5.8-13,11.43-10.28,5.71-17.18,11.25-17.96,21.05,0,0-20.31-8.29-15.36-24.46.53-1.73,1.08-3.36,1.62-4.92,16.02-4.68,36.11-16.23,31.74-32.93,0,0-1.66,11.74-17.3,17.81-2.95,1.15-6.22,2-9.59,2.69,1.97-4.48,3.32-6.93,3.32-6.93,0,0,14.58-33.46,32.45-46.12,0,0-15.21-4.89-32.94,23.65-7.49,12.06-12.11,21.92-15.82,30.55-6.11.76-12.22,1.37-16.15,2.66.37-2.51.94-4.29,2.39-7.38,7.34-15.61,22.84-40.8,18.13-49.73,0,0-.78,3.12-6.46,11.29-5.69,8.17-16.77,25.58-20.85,33.58-4.03,7.91-11.32,28.65,6.79,40.8,14.46,9.7,36.51,28.45,43.09,31.03-6.7-2.03-22.3-3.06-33.03.73,0,0,1.88,18.36,20.09,25.37,4.6,1.77,8.67,3.02,12.2,3.91.97-3.19,3.87-5.56,7.39-5.64l5.89-.12.88-.02-.2-9.84c-.05-2.33.93-4.56,2.68-6.1,1.46-1.29,3.33-1.98,5.24-1.98.38,0,.76.03,1.14.08l10.55,1.54c3.88.57,6.76,3.88,6.78,7.8,0,.54,0,1.11.01,1.67l30.64-.62c-.03-1.05-.07-2.29-.12-3.39-.08-2.13.69-4.2,2.15-5.74,1.46-1.55,3.48-2.44,5.61-2.49l9.41-.19c.05,0,.11,0,.16,0,2.04,0,4.01.79,5.49,2.21,1.52,1.46,2.39,3.46,2.43,5.56l.19,9.83,6.58-.13c.05,0,.11,0,.16,0,4.16,0,7.57,3.23,7.87,7.35,3.53-.9,7.59-2.16,12.2-3.96,18.18-7.08,19.99-25.45,19.99-25.45-10.74-3.75-26.34-2.66-33.03-.61,6.57-2.6,28.55-21.43,42.97-31.19,18.06-12.21,10.69-32.94,6.64-40.83ZM70.55,191.68c-.22.89-.95,1.67-2.16.63-.35-.3-5.16-4.31,3.96-6.63-.72,1.69-1.45,4.62-1.79,6ZM251.04,191.97c-1.21,1.04-1.94.26-2.17-.62-.35-1.38-1.09-4.3-1.81-5.99,9.13,2.28,4.33,6.32,3.98,6.61Z"/>
          <path class="cls-8" d="M192.98,264.45c-.08-1.91-.15-3.78-.19-5.6h.04s-.24-12.15-.24-12.15l-9.41.19s.25,6.4.14,6.4c0,0,0,0,0,0,.07,3.57-1.98,4.77-3.76,5.14l-39.64.8c-1.13-.13-2.93-.76-2.98-3.25,0,0,0,0,0,0-.1,0-.12-6.4-.12-6.4l-10.55-1.54.23,11.46c.04,2.13.05,4.23.07,6.29l-8.74.18-5.89.12.18,8.8,3.58-.07,10.9-.22c0,2.42.03,4.76.07,7.04l-12.7.25-1.71.03.06,2.88.12,5.93,14.61-.29c1.15,14.79,5.09,25.08,19.02,26.09.75.05,1.47.08,2.17.08,9.69,0,14.06-5.2,15.79-13.08,2.39,4.47,6.3,7.41,12.44,7.41.81,0,1.65-.05,2.53-.16,10.41-1.21,13.73-10.29,14.5-21.68l14.47-.29-.04-2.12-.14-6.69-2.36.05-11.73.24c-.05-2.32-.14-4.68-.23-7.03l10.23-.2,3.96-.08-.16-7.76-.02-1.04-14.47.29ZM147.43,299.08c-.06,0-.13,0-.19,0-8.18,0-9.63-10.77-9.91-18.53-.09-2.43-.06-4.56-.09-5.97l19.39-.39c.03,1.31.15,3.22.2,5.41.19,7.85-.48,19.29-9.39,19.47ZM183.26,281.42c-.2,6.06-1.71,12.88-8.55,13.02-.06,0-.12,0-.19,0-7.12,0-8.6-8.24-8.91-14.61-.12-2.36-.08-4.47-.11-5.81l17.59-.35c.03,1.69.28,4.62.17,7.75Z"/>
        </g>
      </g>
      <path class="cls-6" d="M171.21,313.9c-2.43,0-4.08-1.03-5.16-2.66-.16-.24-.49-.21-.58.07-.79,2.62-2.77,5.36-5.55,6.4-1.34.5-1.95,2.14-.94,3.15,1.19,1.19,2.9,1.9,4.75,2.19,1.16.18,3-.11,4.06-.6,6.05-2.83,5.45-8.76,4.54-8.62-.39.06-.77.07-1.13.07Z"/>
    </g>
    <path class="cls-7" d="M162.04,38.88c0-5.17-4.79-8.28-11.38-8.28-6.98,0-12.8,3.49-16.17,9.31l-19.27-10.35c6.85-11.51,19.4-19.14,38.41-19.14s34.14,8.54,34.14,24.31c0,20.18-21.21,23.15-21.21,35.05h-23.02c0-16.94,18.49-21.21,18.49-30.91ZM140.44,90.35c0-7.63,5.95-13.32,14.62-13.32s14.74,5.69,14.74,13.32-6.08,13.58-14.74,13.58-14.62-6.08-14.62-13.58Z"/>
    <path class="cls-7" d="M226.73,47.19c1.16-3.38-1.26-6.48-5.57-7.96-4.56-1.57-9.14-.6-12.65,2.44l-10.25-11.09c7.06-5.97,16.97-8.13,29.38-3.85,13,4.48,20.36,13.25,16.81,23.55-4.54,13.17-19.05,10.34-21.73,18.1l-15.03-5.18c3.81-11.06,16.84-9.68,19.03-16.01ZM201.05,75.93c1.72-4.98,6.88-7.36,12.54-5.41,5.66,1.95,8.34,7.03,6.62,12.01-1.69,4.9-7.02,7.5-12.68,5.55-5.66-1.95-8.17-7.26-6.48-12.15Z"/>
    <path class="cls-7" d="M104.08,57.46c-1.56-3.21-5.47-3.69-9.57-1.7-4.34,2.11-6.89,6.04-7.22,10.67l-15.09-.59c.77-9.22,6.25-17.75,18.05-23.5,12.36-6.02,23.77-5.03,28.54,4.77,6.1,12.52-6.16,20.78-2.56,28.17l-14.29,6.96c-5.12-10.52,5.06-18.76,2.13-24.78ZM106.24,95.94c-2.31-4.74-.34-10.07,5.04-12.69s10.87-.93,13.18,3.81c2.27,4.66.33,10.27-5.04,12.89-5.38,2.62-10.91.65-13.18-4.01Z"/>
  </g>
</svg>